SplineFontDB: 3.0
FontName: FifteenTwenty-Oblique
FullName: FifteenTwenty Oblique
FamilyName: FifteenTwenty
Weight: Regular
Copyright: FifteenTwenty Oblique\nMade in 2016 by Stewart C. Russell - scruss.com\nLicence: Dual-licensed CC0/WTFPL (srsly)\n
UComments: "Derived from character stroke coordinates from the Commodore 1520 plotter ROM. This has been documented here - http://e4aws.silverdr.com/hacks/6500_1/ - and here - https://github.com/Project-64/reloaded/tree/master/1520/rom+AAoACgAA-This font contains none of the original Commodore coordinates, as they were in a format unusable with current computer systems.+AAoACgAA-Coverage: ASCII."
Version: 001.00
ItalicAngle: -9.462
UnderlinePosition: -100
UnderlineWidth: 50
Ascent: 800
Descent: 200
InvalidEm: 0
LayerCount: 2
Layer: 0 0 "Back" 1
Layer: 1 0 "Fore" 0
XUID: [1021 836 1415973427 4842568]
FSType: 0
OS2Version: 0
OS2_WeightWidthSlopeOnly: 0
OS2_UseTypoMetrics: 1
CreationTime: 1461377156
ModificationTime: 1462795766
PfmFamily: 17
TTFWeight: 400
TTFWidth: 5
LineGap: 90
VLineGap: 0
OS2TypoAscent: 0
OS2TypoAOffset: 1
OS2TypoDescent: 0
OS2TypoDOffset: 1
OS2TypoLinegap: 90
OS2WinAscent: 0
OS2WinAOffset: 1
OS2WinDescent: 0
OS2WinDOffset: 1
HheadAscent: 0
HheadAOffset: 1
HheadDescent: 0
HheadDOffset: 1
OS2Vendor: 'PfEd'
MarkAttachClasses: 1
DEI: 91125
LangName: 1033
DesignSize: 120
Encoding: UnicodeFull
Compacted: 1
UnicodeInterp: none
NameList: AGL For New Fonts
DisplaySize: -48
AntiAlias: 1
FitToEm: 1
WinInfo: 0 17 10
BeginPrivate: 0
EndPrivate
TeXData: 1 12582912 0 838860 419430 279620 643944 1048576 279620 783286 444596 497025 792723 393216 433062 380633 303038 157286 324010 404750 52429 2506097 1059062 262144
BeginChars: 1114112 103

StartChar: exclam
Encoding: 33 33 0
Width: 576
VWidth: 200
Flags: W
HStem: 200 42<219 271> 293 42<227 279> 386 42<250 302> 758 42<305 357>
VStem: 173 229
LayerCount: 2
Back
Fore
SplineSet
292 800 m 1
 384 800 l 2
 396 800 404 791 402 779 c 2
 340 407 l 2
 338 395 327 386 315 386 c 2
 225 386 l 2
 224 386 224 386 223 386 c 0
 218 386 210 389 208 392 c 0
 206 395 203 402 204 407 c 0
 204 408 205 409 205 410 c 2
 266 779 l 2
 268 791 280 800 292 800 c 1
305 758 m 1
 250 428 l 1
 302 428 l 1
 357 758 l 1
 305 758 l 1
214 335 m 0
 306 335 l 2
 318 335 327 326 325 314 c 2
 309 221 l 2
 307 209 296 200 284 200 c 2
 194 200 l 2
 193 200 193 200 192 200 c 0
 187 200 179 203 177 206 c 0
 175 209 172 216 173 221 c 0
 173 222 174 223 174 224 c 2
 189 314 l 2
 191 326 202 335 214 335 c 0
227 293 m 1
 219 242 l 1
 271 242 l 1
 279 293 l 1
 227 293 l 1
EndSplineSet
EndChar

StartChar: quotedbl
Encoding: 34 34 1
Width: 576
VWidth: 200
Flags: W
HStem: 665 135<182.339 207.661 368.339 393.661>
VStem: 166 244
LayerCount: 2
Back
Fore
SplineSet
206 800 m 0
 218 800 226 791 224 779 c 0
 208 686 l 2
 206 674 196 665 184 665 c 0
 172 665 164 674 166 686 c 0
 182 779 l 2
 184 790 195 800 206 800 c 0
392 800 m 0
 404 800 412 791 410 779 c 0
 394 686 l 2
 392 674 382 665 370 665 c 0
 358 665 350 674 352 686 c 0
 368 779 l 2
 370 790 381 800 392 800 c 0
EndSplineSet
EndChar

StartChar: numbersign
Encoding: 35 35 2
Width: 576
VWidth: 200
Flags: W
HStem: 386 42<66.0609 155 204 341 390 479.961> 572 42<96.0389 186 235 372 421 509.939>
LayerCount: 2
Back
Fore
SplineSet
229 707 m 0
 241 707 249 698 247 686 c 0
 235 614 l 1
 379 614 l 1
 391 686 l 2
 393 698 403 707 415 707 c 0
 427 707 435 698 433 686 c 0
 421 614 l 1
 493 614 l 2
 503.632011236 614 510.339034176 606.935021067 510.339034176 596.978115169 c 0
 510.339034176 582.453687219 498.822289383 572 486 572 c 2
 414 572 l 1
 390 428 l 1
 462 428 l 2
 472.761663039 428 480.306287429 420.761663039 480.306287429 410.612574859 c 0
 480.306287429 396.20617194 467.690618 386 455 386 c 2
 383 386 l 1
 371 314 l 2
 369 302 359 293 347 293 c 0
 335 293 327 302 329 314 c 0
 341 386 l 1
 197 386 l 1
 185 314 l 2
 183 302 173 293 161 293 c 0
 149 293 141 302 143 314 c 0
 155 386 l 1
 83 386 l 2
 72.367988764 386 65.660965824 393.064978933 65.660965824 403.021884831 c 0
 65.660965824 417.546312781 77.1777106172 428 90 428 c 2
 162 428 l 1
 186 572 l 1
 114 572 l 2
 103.238336961 572 95.6937125706 579.238336961 95.6937125706 589.387425141 c 0
 95.6937125706 603.79382806 108.309382 614 121 614 c 2
 193 614 l 1
 205 686 l 2
 207 697 218 707 229 707 c 0
228 572 m 1
 204 428 l 1
 348 428 l 1
 372 572 l 1
 228 572 l 1
EndSplineSet
EndChar

StartChar: dollar
Encoding: 36 36 3
Width: 576
VWidth: 200
Flags: W
HStem: 200 21G<232 244> 293 42<143.039 233 282 344> 479 42<207 264 312 368> 665 42<231 294 343 432.961> 780 20G<332.5 344>
LayerCount: 2
Back
Fore
SplineSet
338 800 m 0
 350 800 358 792 356 780 c 0
 343 707 l 1
 415 707 l 2
 425.761663039 707 433.306287429 699.761663039 433.306287429 689.612574859 c 0
 433.306287429 675.20617194 420.690618 665 408 665 c 2
 336 665 l 1
 312 521 l 1
 384 521 l 2
 389 521 396 518 398 515 c 2
 476 422 l 2
 478 419 481 412 480 407 c 0
 479 402 475 395 471 392 c 2
 363 299 l 2
 359 296 352 293 347 293 c 2
 275 293 l 1
 263 221 l 2
 261 209 250 200 238 200 c 0
 226 200 219 209 221 221 c 0
 233 293 l 1
 161 293 l 2
 150.238336961 293 142.693712571 300.238336961 142.693712571 310.387425141 c 0
 142.693712571 324.79382806 155.309382 335 168 335 c 2
 240 335 l 1
 264 479 l 1
 191 479 l 2
 186 479 179 482 177 485 c 2
 100 578 l 2
 98 581 95 588 96 593 c 0
 97 598 101 605 105 608 c 2
 213 701 l 2
 217 704 224 707 229 707 c 2
 301 707 l 1
 314 780 l 2
 316 791 327 800 338 800 c 0
231 665 m 1
 147 593 l 1
 207 521 l 1
 270 521 l 1
 294 665 l 1
 231 665 l 1
306 479 m 1
 282 335 l 1
 344 335 l 1
 428 407 l 1
 368 479 l 1
 306 479 l 1
EndSplineSet
EndChar

StartChar: percent
Encoding: 37 37 4
Width: 576
VWidth: 200
Flags: W
HStem: 293 42<375 426> 386 42<383 434> 572 42<142 193> 665 42<150 201>
LayerCount: 2
Back
Fore
SplineSet
229 707 m 2
 234 707 241 704 243 701 c 0
 245 698 248 691 247 686 c 0
 247 685 246 684 246 683 c 2
 232 593 l 2
 230 581 219 572 207 572 c 2
 114 572 l 2
 102 572 94 581 96 593 c 2
 112 686 l 2
 114 698 124 707 136 707 c 2
 226 707 l 2
 227 707 228 707 229 707 c 2
508 707 m 0
 518.761663039 707 526.306287429 699.761663039 526.306287429 689.612574859 c 0
 526.306287429 682.286742886 521.826221047 674.619665785 517 671 c 2
 84 299 l 2
 80 296 73 293 68 293 c 0
 57.2383369607 293 49.6937125706 300.238336961 49.6937125706 310.387425141 c 0
 49.6937125706 317.713257114 54.173778953 325.380334215 59 329 c 2
 492 701 l 2
 496 704 503 707 508 707 c 0
150 665 m 1
 142 614 l 1
 193 614 l 1
 201 665 l 1
 150 665 l 1
369 428 m 0
 370 428 371 428 372 428 c 2
 462 428 l 2
 474 428 482 419 480 407 c 2
 464 314 l 2
 462 302 452 293 440 293 c 2
 347 293 l 2
 335 293 327 302 329 314 c 2
 344 404 l 2
 344 405 345 406 345 407 c 0
 346 412 349 419 353 422 c 0
 357 425 364 428 369 428 c 0
383 386 m 1
 375 335 l 1
 426 335 l 1
 434 386 l 1
 383 386 l 1
EndSplineSet
EndChar

StartChar: ampersand
Encoding: 38 38 5
Width: 576
VWidth: 200
Flags: W
HStem: 200 42<184 259> 780 20G<265.5 270.5>
LayerCount: 2
Back
Fore
SplineSet
268 800 m 0
 273 800 280 797 282 794 c 2
 360 701 l 2
 362 698 364 691 363 686 c 2
 348 593 l 2
 347 588 343 581 339 578 c 2
 248 500 l 1
 378 344 l 1
 469 422 l 2
 473 425 480 428 485 428 c 0
 495.761663039 428 503.306287429 420.761663039 503.306287429 410.612574859 c 0
 503.306287429 403.286742886 498.826221047 395.619665785 494 392 c 2
 403 314 l 1
 468 236 l 2
 472 233 473 226 472 221 c 0
 470 209 459 200 447 200 c 0
 442 200 435 202 433 206 c 2
 368 284 l 1
 277 206 l 2
 273 203 266 200 261 200 c 2
 168 200 l 2
 163 200 156 203 154 206 c 2
 77 299 l 2
 75 302 72 309 73 314 c 2
 89 407 l 2
 90 412 93 419 97 422 c 2
 188 500 l 1
 123 578 l 2
 121 581 119 588 120 593 c 2
 135 686 l 2
 136 691 140 698 144 701 c 2
 252 794 l 2
 256 797 263 800 268 800 c 0
260 749 m 1
 176 677 l 1
 163 602 l 1
 223 530 l 1
 307 602 l 1
 320 677 l 1
 260 749 l 1
213 470 m 1
 129 398 l 1
 117 323 l 1
 184 242 l 1
 259 242 l 1
 343 314 l 1
 213 470 l 1
EndSplineSet
EndChar

StartChar: quotesingle
Encoding: 39 39 6
Width: 576
VWidth: 200
Flags: W
HStem: 572 228
VStem: 252 72
LayerCount: 2
Back
Fore
SplineSet
307 800 m 0
 319 800 326 791 324 779 c 0
 294 593 l 2
 292 581 281 572 269 572 c 0
 257 572 250 581 252 593 c 0
 282 779 l 2
 284 790 296 800 307 800 c 0
EndSplineSet
EndChar

StartChar: parenleft
Encoding: 40 40 7
Width: 576
VWidth: 200
Flags: W
HStem: 200 42<246 347.961> 758 42<332 440.961>
VStem: 135 306.306
LayerCount: 2
Back
Fore
SplineSet
330 800 m 0
 423 800 l 2
 433.761663039 800 441.306287429 792.761663039 441.306287429 782.612574859 c 0
 441.306287429 768.20617194 428.690618 758 416 758 c 2
 332 758 l 1
 238 677 l 1
 179 323 l 1
 246 242 l 1
 330 242 l 2
 340.761663039 242 348.306287429 234.761663039 348.306287429 224.612574859 c 0
 348.306287429 210.20617194 335.690618 200 323 200 c 2
 230 200 l 2
 225 200 218 203 216 206 c 2
 139 299 l 2
 137 302 134 309 135 314 c 2
 197 686 l 2
 198 691 202 698 206 701 c 2
 314 794 l 2
 318 797 325 800 330 800 c 0
EndSplineSet
EndChar

StartChar: parenright
Encoding: 41 41 8
Width: 576
VWidth: 200
Flags: W
HStem: 200 42<135.039 244> 758 42<228.039 330>
VStem: 134.694 306.306
LayerCount: 2
Back
Fore
SplineSet
253 800 m 2
 346 800 l 2
 351 800 358 797 360 794 c 2
 437 701 l 2
 439 698 442 691 441 686 c 2
 379 314 l 2
 378 309 374 302 370 299 c 2
 262 206 l 2
 258 203 251 200 246 200 c 2
 153 200 l 2
 142.238336961 200 134.693712571 207.238336961 134.693712571 217.387425141 c 0
 134.693712571 231.79382806 147.309382 242 160 242 c 2
 244 242 l 1
 338 323 l 1
 397 677 l 1
 330 758 l 1
 246 758 l 2
 235.238336961 758 227.693712571 765.238336961 227.693712571 775.387425141 c 0
 227.693712571 789.79382806 240.309382 800 253 800 c 2
EndSplineSet
EndChar

StartChar: asterisk
Encoding: 42 42 9
Width: 576
VWidth: 200
Flags: W
LayerCount: 2
Back
Fore
SplineSet
322 707 m 0
 334 707 342 698 340 686 c 0
 318 551 l 1
 492 701 l 2
 496 704 503 707 508 707 c 0
 518.761663039 707 526.306287429 699.761663039 526.306287429 689.612574859 c 0
 526.306287429 682.286742886 521.826221047 674.619665785 517 671 c 2
 318 500 l 1
 461 329 l 2
 463 326 465 319 464 314 c 0
 462 302 452 293 440 293 c 0
 435 293 428 296 426 299 c 2
 301 449 l 1
 278 314 l 2
 276 302 266 293 254 293 c 0
 242 293 234 302 236 314 c 0
 259 449 l 1
 84 299 l 2
 80 296 73 293 68 293 c 0
 57.2383369607 293 49.6937125706 300.238336961 49.6937125706 310.387425141 c 0
 49.6937125706 317.713257114 54.173778953 325.380334215 59 329 c 2
 258 500 l 1
 115 671 l 2
 113 674 111 681 112 686 c 0
 114 698 124 707 136 707 c 0
 141 707 148 704 150 701 c 2
 276 551 l 1
 298 686 l 2
 300 697 311 707 322 707 c 0
EndSplineSet
EndChar

StartChar: plus
Encoding: 43 43 10
Width: 576
VWidth: 200
Flags: W
HStem: 479 42<81.0511 264 312 494.949>
LayerCount: 2
Back
Fore
SplineSet
322 707 m 0
 334 707 342 698 340 686 c 0
 312 521 l 1
 478 521 l 2
 488.632011236 521 495.339034176 513.935021067 495.339034176 503.978115169 c 0
 495.339034176 489.348200256 482.904821418 479 470 479 c 2
 306 479 l 1
 278 314 l 2
 276 302 266 293 254 293 c 0
 242 293 234 302 236 314 c 0
 264 479 l 1
 98 479 l 2
 87.367988764 479 80.660965824 486.064978933 80.660965824 496.021884831 c 0
 80.660965824 510.651799744 93.0951785819 521 106 521 c 2
 270 521 l 1
 298 686 l 2
 300 697 311 707 322 707 c 0
EndSplineSet
EndChar

StartChar: comma
Encoding: 44 44 11
Width: 576
VWidth: 200
Flags: W
HStem: 107 21G<217.619 225.5> 200 42<266 281> 293 42<274 326>
VStem: 204.694 166.306
LayerCount: 2
Back
Fore
SplineSet
260 335 m 1
 353 335 l 2
 365 335 373 326 371 314 c 2
 356 224 l 2
 356 223 356 222 356 221 c 0
 355 215 351 207 345 204 c 2
 239 113 l 2
 235 110 228 107 223 107 c 0
 212.238336961 107 204.693712571 114.238336961 204.693712571 124.387425141 c 0
 204.693712571 131.903431946 210.125529137 139.125529137 214 143 c 2
 281 200 l 1
 238 200 l 2
 226 200 218 209 220 221 c 2
 236 314 l 2
 238 326 248 335 260 335 c 1
274 293 m 1
 266 242 l 1
 317 242 l 1
 326 293 l 1
 274 293 l 1
EndSplineSet
EndChar

StartChar: hyphen
Encoding: 45 45 12
Width: 576
VWidth: 200
Flags: W
HStem: 479 42<81.0511 494.949>
LayerCount: 2
Back
Fore
SplineSet
106 521 m 2
 478 521 l 2
 488.632011236 521 495.339034176 513.935021067 495.339034176 503.978115169 c 0
 495.339034176 489.348200256 482.904821418 479 470 479 c 2
 98 479 l 2
 87.367988764 479 80.660965824 486.064978933 80.660965824 496.021884831 c 0
 80.660965824 510.651799744 93.0951785819 521 106 521 c 2
EndSplineSet
EndChar

StartChar: period
Encoding: 46 46 13
Width: 576
VWidth: 200
Flags: W
HStem: 200 42<258 310> 293 42<266 318>
VStem: 212 152
LayerCount: 2
Back
Fore
SplineSet
253 335 m 0
 345 335 l 2
 357 335 366 326 364 314 c 2
 348 221 l 2
 346 209 335 200 323 200 c 2
 233 200 l 2
 232 200 232 200 231 200 c 0
 226 200 218 203 216 206 c 0
 214 209 211 216 212 221 c 0
 212 222 213 223 213 224 c 2
 228 314 l 2
 230 326 241 335 253 335 c 0
266 293 m 1
 258 242 l 1
 310 242 l 1
 318 293 l 1
 266 293 l 1
EndSplineSet
EndChar

StartChar: slash
Encoding: 47 47 14
Width: 576
VWidth: 200
Flags: W
HStem: 200 21G<7.61917 15.5>
LayerCount: 2
Back
Fore
SplineSet
562 707 m 0
 563 707 l 0
 573.761663039 707 581.306287429 699.761663039 581.306287429 689.612574859 c 0
 581.306287429 682.019341231 575.968779573 674.72658468 571 671 c 2
 29 206 l 2
 25 202 18 200 13 200 c 0
 2.23833696071 200 -5.30628742938 207.238336961 -5.30628742938 217.387425141 c 0
 -5.30628742938 224.980658769 0.0312204270056 232.27341532 5 236 c 2
 547 701 l 2
 551 704 557 707 562 707 c 0
EndSplineSet
EndChar

StartChar: zero
Encoding: 48 48 15
Width: 576
VWidth: 200
Flags: W
HStem: 200 42<161 329> 758 42<247 415>
LayerCount: 2
Back
Fore
SplineSet
245 800 m 2
 431 800 l 2
 436 800 443 797 445 794 c 2
 521 703 l 2
 525 700 527 693 526 687 c 0
 526 686 l 0
 464 314 l 2
 463 309 459 302 455 299 c 2
 347 206 l 2
 343 203 336 200 331 200 c 2
 145 200 l 2
 140 200 133 203 131 206 c 2
 56 297 l 2
 52 300 49 308 50 314 c 0
 50 315 50 316 50 317 c 2
 112 686 l 2
 113 691 116 698 120 701 c 2
 229 794 l 2
 233 797 240 800 245 800 c 2
247 758 m 1
 152 677 l 1
 100 365 l 1
 475 686 l 1
 415 758 l 1
 247 758 l 1
475 635 m 1
 101 314 l 1
 161 242 l 1
 329 242 l 1
 423 323 l 1
 475 635 l 1
EndSplineSet
EndChar

StartChar: one
Encoding: 49 49 16
Width: 576
VWidth: 200
Flags: W
HStem: 200 42<174.061 270 312 401.961> 780 20G<380.5 390>
VStem: 173.661 228.645<200.264 241.87>
LayerCount: 2
Back
Fore
SplineSet
383 800 m 0
 384 800 l 0
 396 800 404 792 402 780 c 2
 312 242 l 1
 384 242 l 2
 394.761663039 242 402.306287429 234.761663039 402.306287429 224.612574859 c 0
 402.306287429 210.20617194 389.690618 200 377 200 c 2
 287 200 l 2
 286 200 285 200 284 200 c 0
 283 200 282 200 281 200 c 2
 191 200 l 2
 180.367988764 200 173.660965824 207.064978933 173.660965824 217.021884831 c 0
 173.660965824 231.546312781 185.177710617 242 198 242 c 2
 270 242 l 1
 351 728 l 1
 285 671 l 2
 281 667 274 665 269 665 c 0
 258.238336961 665 250.693712571 672.238336961 250.693712571 682.387425141 c 0
 250.693712571 689.713257114 255.173778953 697.380334215 260 701 c 2
 368 794 l 2
 372 797 378 800 383 800 c 0
EndSplineSet
EndChar

StartChar: two
Encoding: 50 50 17
Width: 576
VWidth: 200
Flags: W
HStem: 200 42<118 455.939> 758 42<255 423>
LayerCount: 2
Back
Fore
SplineSet
253 800 m 2
 439 800 l 2
 444 800 451 797 453 794 c 2
 530 701 l 2
 532 698 535 691 534 686 c 2
 518 593 l 2
 517 588 514 581 510 578 c 2
 118 242 l 1
 439 242 l 2
 449.632011236 242 456.339034176 234.935021067 456.339034176 224.978115169 c 0
 456.339034176 210.453687219 444.822289383 200 432 200 c 2
 60 200 l 2
 49.2383369607 200 41.6937125706 207.238336961 41.6937125706 217.387425141 c 0
 41.6937125706 224.713257114 46.173778953 232.380334215 51 236 c 2
 478 602 l 1
 490 677 l 1
 423 758 l 1
 255 758 l 1
 153 671 l 2
 149 668 142 665 137 665 c 0
 126.367988764 665 119.660965824 672.064978933 119.660965824 682.021884831 c 0
 119.660965824 689.262309517 123.214893541 697.411170156 128 701 c 2
 237 794 l 2
 241 797 248 800 253 800 c 2
EndSplineSet
EndChar

StartChar: three
Encoding: 51 51 18
Width: 576
VWidth: 200
Flags: W
HStem: 200 42<161 329> 479 42<267.051 368> 758 42<247 415>
CounterMasks: 1 e0
LayerCount: 2
Back
Fore
SplineSet
245 800 m 0
 431 800 l 2
 436 800 443 797 445 794 c 2
 522 701 l 2
 524 698 527 691 526 686 c 2
 510 593 l 2
 509 588 506 581 502 578 c 2
 411 500 l 1
 476 422 l 2
 478 419 481 412 480 407 c 2
 464 314 l 2
 463 309 460 302 456 299 c 2
 347 206 l 2
 343 203 336 200 331 200 c 2
 145 200 l 2
 140 200 133 203 131 206 c 2
 54 299 l 2
 52 302 49 309 50 314 c 0
 52 326 63 335 75 335 c 0
 80 335 87 332 89 329 c 2
 161 242 l 1
 329 242 l 1
 424 323 l 1
 436 398 l 1
 368 479 l 1
 284 479 l 2
 273.367988764 479 266.660965824 486.064978933 266.660965824 496.021884831 c 0
 266.660965824 510.651799744 279.095178582 521 292 521 c 2
 376 521 l 1
 470 602 l 1
 482 677 l 1
 415 758 l 1
 247 758 l 1
 145 671 l 2
 141 668 134 665 129 665 c 0
 118.367988764 665 111.660965824 672.064978933 111.660965824 682.021884831 c 0
 111.660965824 689.262309517 115.214893541 697.411170156 120 701 c 2
 229 794 l 2
 233 797 240 800 245 800 c 0
EndSplineSet
EndChar

StartChar: four
Encoding: 52 52 19
Width: 576
VWidth: 200
Flags: W
HStem: 200 21G<341 353> 386 42<126 356 406 494.949> 780 20G<442.5 452>
LayerCount: 2
Back
Fore
SplineSet
445 800 m 0
 446 800 l 0
 458 800 466 792 464 780 c 2
 406 428 l 1
 478 428 l 2
 488.632011236 428 495.339034176 420.935021067 495.339034176 410.978115169 c 0
 495.339034176 396.348200256 482.904821418 386 470 386 c 2
 398 386 l 1
 371 221 l 2
 369 209 359 200 347 200 c 0
 335 200 327 209 329 221 c 0
 356 386 l 1
 98 386 l 2
 86 386 79 395 81 407 c 2
 96 500 l 2
 97 505 101 512 105 515 c 2
 430 794 l 2
 434 797 440 800 445 800 c 0
413 728 m 1
 137 491 l 1
 126 428 l 1
 364 428 l 1
 413 728 l 1
EndSplineSet
EndChar

StartChar: five
Encoding: 53 53 20
Width: 576
VWidth: 200
Flags: W
HStem: 200 42<153 321> 572 42<134 376> 758 42<158 533.961>
LayerCount: 2
Back
Fore
SplineSet
144 800 m 0
 516 800 l 2
 526.761663039 800 534.306287429 792.761663039 534.306287429 782.612574859 c 0
 534.306287429 768.20617194 521.690618 758 509 758 c 2
 158 758 l 1
 134 614 l 1
 392 614 l 2
 397 614 404 611 406 608 c 2
 484 515 l 2
 486 512 488 505 487 500 c 2
 456 314 l 2
 455 309 452 302 448 299 c 2
 339 206 l 2
 335 203 328 200 323 200 c 2
 137 200 l 2
 132 200 125 203 123 206 c 2
 46 299 l 2
 44 302 41 309 42 314 c 0
 44 326 55 335 67 335 c 0
 72 335 79 332 81 329 c 2
 153 242 l 1
 321 242 l 1
 416 323 l 1
 444 491 l 1
 376 572 l 1
 106 572 l 2
 94 572 87 581 89 593 c 2
 120 779 l 2
 122 791 132 800 144 800 c 0
EndSplineSet
EndChar

StartChar: six
Encoding: 54 54 21
Width: 576
VWidth: 200
Flags: W
HStem: 200 42<161 329> 572 42<216 384> 758 42<247 415>
LayerCount: 2
Back
Fore
SplineSet
245 800 m 0
 431 800 l 2
 436 800 443 797 445 794 c 2
 522 701 l 2
 524 698 527 691 526 686 c 0
 524 674 513 665 501 665 c 0
 496 665 489 668 487 671 c 2
 415 758 l 1
 247 758 l 1
 152 677 l 1
 132 551 l 1
 198 608 l 2
 202 611 209 614 214 614 c 2
 400 614 l 2
 405 614 412 611 414 608 c 2
 492 515 l 2
 494 512 496 505 495 500 c 2
 464 314 l 2
 463 309 460 302 456 299 c 2
 347 206 l 2
 343 203 336 200 331 200 c 2
 145 200 l 2
 140 200 133 203 131 206 c 2
 54 299 l 2
 52 302 49 309 50 314 c 2
 80 497 l 2
 80 498 81 499 81 500 c 0
 81 501 82 502 82 503 c 2
 112 686 l 2
 113 691 116 698 120 701 c 2
 229 794 l 2
 233 797 240 800 245 800 c 0
216 572 m 1
 122 491 l 1
 94 323 l 1
 161 242 l 1
 329 242 l 1
 424 323 l 1
 452 491 l 1
 384 572 l 1
 216 572 l 1
EndSplineSet
EndChar

StartChar: seven
Encoding: 55 55 22
Width: 576
VWidth: 200
Flags: W
HStem: 200 21G<46.684 54.5> 758 42<127.039 496>
LayerCount: 2
Back
Fore
SplineSet
152 800 m 2
 524 800 l 2
 536 800 543 791 541 779 c 2
 510 593 l 2
 509 588 506 581 502 578 c 2
 68 206 l 2
 64 202 57 200 52 200 c 0
 41.367988764 200 34.660965824 207.064978933 34.660965824 217.021884831 c 0
 34.660965824 224.262309517 38.214893541 232.411170156 43 236 c 2
 470 602 l 1
 496 758 l 1
 145 758 l 2
 134.238336961 758 126.693712571 765.238336961 126.693712571 775.387425141 c 0
 126.693712571 789.79382806 139.309382 800 152 800 c 2
EndSplineSet
EndChar

StartChar: eight
Encoding: 56 56 23
Width: 576
VWidth: 200
Flags: W
HStem: 200 42<161 329> 479 42<208 368> 758 42<247 415>
CounterMasks: 1 e0
LayerCount: 2
Back
Fore
SplineSet
245 800 m 1
 431 800 l 2
 436 800 443 797 445 794 c 2
 522 701 l 2
 524 698 527 691 526 686 c 2
 510 593 l 2
 509 588 506 581 502 578 c 2
 411 500 l 1
 476 422 l 2
 478 419 481 412 480 407 c 2
 464 314 l 2
 463 309 460 302 456 299 c 2
 347 206 l 2
 343 203 336 200 331 200 c 2
 145 200 l 2
 140 200 133 203 131 206 c 2
 54 299 l 2
 52 302 49 309 50 314 c 2
 66 407 l 2
 67 412 70 419 74 422 c 2
 165 500 l 1
 100 578 l 2
 98 581 95 588 96 593 c 2
 112 686 l 2
 113 691 116 698 120 701 c 2
 229 794 l 2
 233 797 240 800 245 800 c 1
247 758 m 1
 152 677 l 1
 140 602 l 1
 208 521 l 1
 376 521 l 1
 470 602 l 1
 482 677 l 1
 415 758 l 1
 247 758 l 1
200 479 m 1
 106 398 l 1
 94 323 l 1
 161 242 l 1
 329 242 l 1
 424 323 l 1
 436 398 l 1
 368 479 l 1
 200 479 l 1
EndSplineSet
EndChar

StartChar: nine
Encoding: 57 57 24
Width: 576
VWidth: 200
Flags: W
HStem: 200 42<161 329> 479 42<208 376> 758 42<247 415>
CounterMasks: 1 e0
LayerCount: 2
Back
Fore
SplineSet
245 800 m 0
 431 800 l 2
 436 800 443 797 445 794 c 2
 522 701 l 2
 524 698 527 691 526 686 c 2
 511 596 l 2
 511 595 510 594 510 593 c 0
 510 592 510 592 510 591 c 2
 464 314 l 2
 463 309 460 302 456 299 c 2
 347 206 l 2
 343 203 336 200 331 200 c 2
 145 200 l 2
 140 200 133 203 131 206 c 2
 54 299 l 2
 52 302 49 309 50 314 c 0
 52 326 63 335 75 335 c 0
 80 335 87 332 89 329 c 2
 161 242 l 1
 329 242 l 1
 424 323 l 1
 460 542 l 1
 394 485 l 2
 390 482 383 479 378 479 c 2
 192 479 l 2
 187 479 180 482 178 485 c 2
 100 578 l 2
 98 581 95 588 96 593 c 2
 112 686 l 2
 113 691 116 698 120 701 c 2
 229 794 l 2
 233 797 240 800 245 800 c 0
247 758 m 1
 152 677 l 1
 140 602 l 1
 208 521 l 1
 376 521 l 1
 470 602 l 1
 482 677 l 1
 415 758 l 1
 247 758 l 1
EndSplineSet
EndChar

StartChar: colon
Encoding: 58 58 25
Width: 576
VWidth: 200
Flags: W
HStem: 293 42<234 286> 386 42<243 295> 572 42<281 333> 665 42<289 341>
VStem: 192 195
LayerCount: 2
Back
Fore
SplineSet
276 707 m 1
 368 707 l 2
 380 707 389 698 387 686 c 2
 371 593 l 2
 369 581 358 572 346 572 c 2
 256 572 l 2
 255 572 255 572 254 572 c 0
 249 572 241 575 239 578 c 0
 237 581 234 588 235 593 c 0
 235 594 236 596 236 597 c 2
 251 686 l 2
 253 698 264 707 276 707 c 1
289 665 m 1
 281 614 l 1
 333 614 l 1
 341 665 l 1
 289 665 l 1
230 428 m 1
 322 428 l 2
 334 428 342 419 340 407 c 2
 325 314 l 2
 323 302 311 293 299 293 c 2
 209 293 l 2
 208 293 208 293 207 293 c 0
 202 293 194 296 192 299 c 0
 190 302 188 309 189 314 c 0
 189 315 189 316 189 317 c 2
 204 407 l 2
 206 419 218 428 230 428 c 1
243 386 m 1
 234 335 l 1
 286 335 l 1
 295 386 l 1
 243 386 l 1
EndSplineSet
EndChar

StartChar: semicolon
Encoding: 59 59 26
Width: 576
VWidth: 200
Flags: W
HStem: 200 21G<193.619 201.5> 293 42<242 257> 386 42<251 303> 572 42<289 341> 665 42<297 349>
VStem: 180.694 214.306
LayerCount: 2
Back
Fore
SplineSet
283 707 m 1
 376 707 l 2
 388 707 397 698 395 686 c 2
 380 596 l 2
 380 595 379 594 379 593 c 0
 378 588 375 581 371 578 c 0
 370 578 l 0
 366 575 359 572 354 572 c 0
 353 572 352 572 351 572 c 2
 261 572 l 2
 249 572 241 581 243 593 c 2
 259 686 l 2
 261 698 271 707 283 707 c 1
297 665 m 1
 289 614 l 1
 341 614 l 1
 349 665 l 1
 297 665 l 1
237 428 m 0
 330 428 l 2
 342 428 350 419 348 407 c 2
 333 317 l 2
 333 316 333 315 333 314 c 0
 332 308 328 300 322 297 c 2
 215 206 l 2
 211 202 204 200 199 200 c 0
 188.238336961 200 180.693712571 207.238336961 180.693712571 217.387425141 c 0
 180.693712571 224.980658769 186.031220427 232.27341532 191 236 c 2
 257 293 l 1
 214 293 l 2
 202 293 195 302 197 314 c 2
 212 407 l 2
 214 419 225 428 237 428 c 0
251 386 m 1
 242 335 l 1
 294 335 l 1
 303 386 l 1
 251 386 l 1
EndSplineSet
EndChar

StartChar: less
Encoding: 60 60 27
Width: 576
VWidth: 200
Flags: W
HStem: 200 21G<352.5 361> 780 20G<451.5 461>
LayerCount: 2
Back
Fore
SplineSet
454 800 m 0
 455 800 l 0
 467 800 474 792 472 780 c 0
 471 775 467 767 463 764 c 2
 155 500 l 1
 375 236 l 2
 379 233 381 226 380 221 c 0
 378 209 367 200 355 200 c 0
 350 200 343 202 341 206 c 2
 109 485 l 2
 107 488 103 495 104 500 c 0
 105 505 110 512 114 515 c 2
 439 794 l 2
 443 797 449 800 454 800 c 0
EndSplineSet
EndChar

StartChar: equal
Encoding: 61 61 28
Width: 576
VWidth: 200
Flags: W
HStem: 386 42<112.061 433.961> 572 42<142.039 463.939>
LayerCount: 2
Back
Fore
SplineSet
167 614 m 2
 447 614 l 2
 457.632011236 614 464.339034176 606.935021067 464.339034176 596.978115169 c 0
 464.339034176 582.453687219 452.822289383 572 440 572 c 2
 160 572 l 2
 149.238336961 572 141.693712571 579.238336961 141.693712571 589.387425141 c 0
 141.693712571 603.79382806 154.309382 614 167 614 c 2
136 428 m 2
 416 428 l 2
 426.761663039 428 434.306287429 420.761663039 434.306287429 410.612574859 c 0
 434.306287429 396.20617194 421.690618 386 409 386 c 2
 129 386 l 2
 118.367988764 386 111.660965824 393.064978933 111.660965824 403.021884831 c 0
 111.660965824 417.546312781 123.177710617 428 136 428 c 2
EndSplineSet
EndChar

StartChar: greater
Encoding: 62 62 29
Width: 576
VWidth: 200
Flags: W
HStem: 200 21G<115.684 123.5> 780 20G<215 223.5>
LayerCount: 2
Back
Fore
SplineSet
221 800 m 0
 226 800 233 798 235 794 c 2
 469 515 l 2
 471 512 473 505 472 500 c 0
 471 495 468 488 464 485 c 2
 137 206 l 2
 133 202 126 200 121 200 c 0
 110.367988764 200 103.660965824 207.064978933 103.660965824 217.021884831 c 0
 103.660965824 224.578080903 108.046865725 232.285149294 113 236 c 2
 421 500 l 1
 201 764 l 2
 197 767 196 775 197 780 c 0
 199 792 209 800 221 800 c 0
EndSplineSet
EndChar

StartChar: question
Encoding: 63 63 30
Width: 576
VWidth: 200
Flags: W
HStem: 200 21G<201 213> 479 42<275 345> 758 42<216 384>
LayerCount: 2
Back
Fore
SplineSet
214 800 m 1
 400 800 l 2
 405 800 412 797 414 794 c 2
 492 701 l 2
 494 698 496 691 495 686 c 2
 480 593 l 2
 479 588 475 581 471 578 c 2
 363 485 l 2
 359 482 352 479 347 479 c 2
 275 479 l 1
 263 407 l 2
 261 395 250 386 238 386 c 0
 226 386 219 395 221 407 c 0
 236 500 l 2
 238 512 249 521 261 521 c 2
 345 521 l 1
 439 602 l 1
 452 677 l 1
 384 758 l 1
 216 758 l 1
 115 671 l 2
 111 668 104 665 99 665 c 0
 88.2383369607 665 80.6937125706 672.238336961 80.6937125706 682.387425141 c 0
 80.6937125706 689.713257114 85.173778953 697.380334215 90 701 c 2
 198 794 l 2
 202 797 209 800 214 800 c 1
230 335 m 0
 242 335 249 326 247 314 c 0
 232 221 l 2
 230 209 219 200 207 200 c 0
 195 200 188 209 190 221 c 0
 205 314 l 2
 207 325 219 335 230 335 c 0
EndSplineSet
EndChar

StartChar: at
Encoding: 64 64 31
Width: 576
VWidth: 200
Flags: W
HStem: 200 42<169 455.939> 293 42<196 352> 572 42<236 380> 665 42<239 407>
LayerCount: 2
Back
Fore
SplineSet
237 707 m 1
 423 707 l 2
 428 707 435 704 437 701 c 2
 515 608 l 2
 517 605 519 598 518 593 c 2
 487 407 l 2
 486 402 483 395 479 392 c 2
 370 299 l 2
 366 296 359 293 354 293 c 2
 168 293 l 2
 156 293 149 302 151 314 c 2
 197 593 l 2
 199 605 210 614 222 614 c 2
 408 614 l 2
 420 614 427 605 425 593 c 2
 394 407 l 2
 392 395 382 386 370 386 c 0
 358 386 350 395 352 407 c 0
 380 572 l 1
 236 572 l 1
 196 335 l 1
 352 335 l 1
 447 416 l 1
 475 584 l 1
 407 665 l 1
 239 665 l 1
 145 584 l 1
 101 323 l 1
 169 242 l 1
 439 242 l 2
 449.632011236 242 456.339034176 234.935021067 456.339034176 224.978115169 c 0
 456.339034176 210.453687219 444.822289383 200 432 200 c 2
 153 200 l 2
 148 200 141 203 139 206 c 2
 61 299 l 2
 59 302 57 309 58 314 c 2
 104 593 l 2
 105 598 109 605 113 608 c 2
 221 701 l 2
 225 704 232 707 237 707 c 1
EndSplineSet
EndChar

StartChar: A
Encoding: 65 65 32
Width: 576
VWidth: 200
Flags: W
HStem: 200 21G<62 74 434 446> 479 42<142 465> 780 20G<351.5 356.5>
LayerCount: 2
Back
Fore
SplineSet
354 800 m 0
 359 800 366 797 368 794 c 2
 523 608 l 2
 525 605 527 598 526 593 c 2
 511 503 l 2
 511 502 511 501 511 500 c 0
 511 499 510 498 510 497 c 2
 464 221 l 2
 462 209 452 200 440 200 c 0
 428 200 420 209 422 221 c 0
 465 479 l 1
 135 479 l 1
 92 221 l 2
 90 209 80 200 68 200 c 0
 56 200 48 209 50 221 c 0
 96 497 l 2
 96 498 97 499 97 500 c 0
 97 501 97 503 97 504 c 2
 112 593 l 2
 113 598 117 605 121 608 c 2
 338 794 l 2
 342 797 349 800 354 800 c 0
345 749 m 1
 153 584 l 1
 142 521 l 1
 472 521 l 1
 483 584 l 1
 345 749 l 1
EndSplineSet
EndChar

StartChar: B
Encoding: 66 66 33
Width: 576
VWidth: 200
Flags: W
HStem: 200 42<88 337> 479 42<134 376> 758 42<174 423>
CounterMasks: 1 e0
LayerCount: 2
Back
Fore
SplineSet
160 800 m 0
 439 800 l 2
 444 800 451 797 453 794 c 2
 530 701 l 2
 532 698 535 691 534 686 c 2
 518 593 l 2
 517 588 514 581 510 578 c 2
 419 500 l 1
 484 422 l 2
 486 419 488 412 487 407 c 2
 472 314 l 2
 471 309 467 302 463 299 c 2
 355 206 l 2
 351 203 344 200 339 200 c 2
 63 200 l 2
 62 200 61 200 60 200 c 0
 55 200 48 203 46 206 c 0
 44 209 41 216 42 221 c 0
 42 222 43 223 43 224 c 2
 88 497 l 2
 88 498 89 499 89 500 c 0
 89 501 89 503 89 504 c 2
 135 779 l 2
 137 791 148 800 160 800 c 0
174 758 m 1
 134 521 l 1
 383 521 l 1
 478 602 l 1
 490 677 l 1
 423 758 l 1
 174 758 l 1
127 479 m 1
 88 242 l 1
 337 242 l 1
 431 323 l 1
 444 398 l 1
 376 479 l 1
 127 479 l 1
EndSplineSet
EndChar

StartChar: C
Encoding: 67 67 34
Width: 576
VWidth: 200
Flags: W
HStem: 200 42<161 329> 758 42<247 415>
LayerCount: 2
Back
Fore
SplineSet
245 800 m 2
 431 800 l 2
 436 800 443 797 445 794 c 2
 522 701 l 2
 524 698 527 691 526 686 c 0
 524 674 513 665 501 665 c 0
 496 665 489 668 487 671 c 2
 415 758 l 1
 247 758 l 1
 152 677 l 1
 94 323 l 1
 161 242 l 1
 329 242 l 1
 431 329 l 2
 435 332 442 335 447 335 c 0
 457.632011236 335 464.339034176 327.935021067 464.339034176 317.978115169 c 0
 464.339034176 310.737690483 460.785106459 302.588829844 456 299 c 2
 347 206 l 2
 343 203 336 200 331 200 c 2
 145 200 l 2
 140 200 133 203 131 206 c 2
 54 299 l 2
 52 302 49 309 50 314 c 2
 112 686 l 2
 113 691 116 698 120 701 c 2
 229 794 l 2
 233 797 240 800 245 800 c 2
EndSplineSet
EndChar

StartChar: D
Encoding: 68 68 35
Width: 576
VWidth: 200
Flags: W
HStem: 200 42<88 337> 758 42<174 423>
LayerCount: 2
Back
Fore
SplineSet
160 800 m 0
 439 800 l 2
 444 800 451 797 453 794 c 2
 530 701 l 2
 532 698 535 691 534 686 c 2
 472 314 l 2
 471 309 467 302 463 299 c 2
 355 206 l 2
 351 203 344 200 339 200 c 2
 63 200 l 2
 62 200 61 200 60 200 c 0
 55 200 48 203 46 206 c 0
 44 209 41 216 42 221 c 0
 42 222 43 223 43 224 c 2
 135 779 l 2
 137 791 148 800 160 800 c 0
174 758 m 1
 88 242 l 1
 337 242 l 1
 431 323 l 1
 490 677 l 1
 423 758 l 1
 174 758 l 1
EndSplineSet
EndChar

StartChar: E
Encoding: 69 69 36
Width: 576
VWidth: 200
Flags: W
HStem: 200 42<80 448.961> 479 42<126 402.007> 758 42<166 540.939>
CounterMasks: 1 e0
LayerCount: 2
Back
Fore
SplineSet
152 800 m 1
 524 800 l 2
 534.632011236 800 541.339034176 792.935021067 541.339034176 782.978115169 c 0
 541.339034176 768.453687219 529.822289383 758 517 758 c 2
 166 758 l 1
 126 521 l 1
 384 521 l 2
 394.761663039 521 402.306287429 513.761663039 402.306287429 503.612574859 c 0
 402.306287429 489.301953177 390.615748077 479 378 479 c 2
 120 479 l 1
 80 242 l 1
 431 242 l 2
 441.761663039 242 449.306287429 234.761663039 449.306287429 224.612574859 c 0
 449.306287429 210.20617194 436.690618 200 424 200 c 2
 52 200 l 2
 40 200 33 209 35 221 c 2
 80 497 l 2
 80 498 81 499 81 500 c 0
 81 501 82 503 82 504 c 2
 127 779 l 2
 129 791 140 800 152 800 c 1
EndSplineSet
EndChar

StartChar: F
Encoding: 70 70 37
Width: 576
VWidth: 200
Flags: W
HStem: 200 21G<46 58> 479 42<126 402.007> 758 42<166 540.939>
LayerCount: 2
Back
Fore
SplineSet
152 800 m 1
 524 800 l 2
 534.632011236 800 541.339034176 792.935021067 541.339034176 782.978115169 c 0
 541.339034176 768.453687219 529.822289383 758 517 758 c 2
 166 758 l 1
 126 521 l 1
 384 521 l 2
 394.761663039 521 402.306287429 513.761663039 402.306287429 503.612574859 c 0
 402.306287429 489.301953177 390.615748077 479 378 479 c 2
 120 479 l 1
 77 221 l 2
 75 209 64 200 52 200 c 0
 40 200 33 209 35 221 c 0
 80 497 l 2
 80 498 81 499 81 500 c 0
 81 501 82 503 82 504 c 2
 127 779 l 2
 129 791 140 800 152 800 c 1
EndSplineSet
EndChar

StartChar: G
Encoding: 71 71 38
Width: 576
VWidth: 200
Flags: W
HStem: 200 42<161 410> 479 42<267.051 450> 758 42<247 415>
CounterMasks: 1 e0
LayerCount: 2
Back
Fore
SplineSet
245 800 m 0
 431 800 l 2
 436 800 443 797 445 794 c 2
 522 701 l 2
 524 698 527 691 526 686 c 0
 524 674 513 665 501 665 c 0
 496 665 489 668 487 671 c 2
 415 758 l 1
 247 758 l 1
 152 677 l 1
 94 323 l 1
 161 242 l 1
 410 242 l 1
 450 479 l 1
 284 479 l 2
 273.367988764 479 266.660965824 486.064978933 266.660965824 496.021884831 c 0
 266.660965824 510.651799744 279.095178582 521 292 521 c 2
 478 521 l 2
 490 521 497 512 495 500 c 2
 449 221 l 2
 447 209 436 200 424 200 c 2
 145 200 l 2
 140 200 133 203 131 206 c 2
 54 299 l 2
 52 302 49 309 50 314 c 2
 112 686 l 2
 113 691 116 698 120 701 c 2
 229 794 l 2
 233 797 240 800 245 800 c 0
EndSplineSet
EndChar

StartChar: H
Encoding: 72 72 39
Width: 576
VWidth: 200
Flags: W
HStem: 200 21G<46 58 418 430> 479 42<126 449> 780 20G<146.5 158 518 530>
LayerCount: 2
Back
Fore
SplineSet
152 800 m 0
 164 800 172 792 170 780 c 0
 126 521 l 1
 456 521 l 1
 500 780 l 2
 502 792 512 800 524 800 c 0
 536 800 544 792 542 780 c 0
 495 503 l 2
 495 502 495 501 495 500 c 0
 495 499 494 498 494 497 c 2
 448 221 l 2
 446 209 436 200 424 200 c 0
 412 200 404 209 406 221 c 0
 449 479 l 1
 119 479 l 1
 76 221 l 2
 74 209 64 200 52 200 c 0
 40 200 32 209 34 221 c 0
 80 497 l 2
 80 498 81 499 81 500 c 0
 81 501 82 503 82 504 c 2
 128 780 l 2
 130 791 141 800 152 800 c 0
EndSplineSet
EndChar

StartChar: I
Encoding: 73 73 40
Width: 576
VWidth: 200
Flags: W
HStem: 200 42<128.061 224 266 355.961> 758 42<220.039 310 352 447.939>
VStem: 127.661 320.678
LayerCount: 2
Back
Fore
SplineSet
338 800 m 0
 339 800 340 800 341 800 c 2
 431 800 l 2
 441.632011236 800 448.339034176 792.935021067 448.339034176 782.978115169 c 0
 448.339034176 768.453687219 436.822289383 758 424 758 c 2
 352 758 l 1
 266 242 l 1
 338 242 l 2
 348.761663039 242 356.306287429 234.761663039 356.306287429 224.612574859 c 0
 356.306287429 210.20617194 343.690618 200 331 200 c 2
 241 200 l 2
 240 200 239 200 238 200 c 0
 237 200 236 200 235 200 c 2
 145 200 l 2
 134.367988764 200 127.660965824 207.064978933 127.660965824 217.021884831 c 0
 127.660965824 231.546312781 139.177710617 242 152 242 c 2
 224 242 l 1
 310 758 l 1
 238 758 l 2
 227.238336961 758 219.693712571 765.238336961 219.693712571 775.387425141 c 0
 219.693712571 789.79382806 232.309382 800 245 800 c 2
 335 800 l 2
 336 800 337 800 338 800 c 0
EndSplineSet
EndChar

StartChar: J
Encoding: 74 74 41
Width: 576
VWidth: 200
Flags: W
HStem: 200 42<199 275> 780 20G<463.5 476>
LayerCount: 2
Back
Fore
SplineSet
469 800 m 0
 470 800 l 0
 482 800 490 792 488 780 c 0
 410 314 l 2
 409 309 405 302 401 299 c 2
 292 206 l 2
 288 203 282 200 277 200 c 2
 184 200 l 2
 179 200 172 203 170 206 c 2
 93 299 l 2
 91 302 87 309 88 314 c 0
 90 326 101 335 113 335 c 0
 118 335 125 332 127 329 c 2
 199 242 l 1
 275 242 l 1
 370 323 l 1
 446 780 l 2
 448 791 458 800 469 800 c 0
EndSplineSet
EndChar

StartChar: K
Encoding: 75 75 42
Width: 576
VWidth: 200
Flags: W
HStem: 200 21G<46 58 421.5 430> 780 20G<146.5 158 521.5 530>
LayerCount: 2
Back
Fore
SplineSet
152 800 m 0
 164 800 172 792 170 780 c 0
 116 458 l 1
 180 513 l 2
 181 515 184 516 186 517 c 2
 508 794 l 2
 512 797 519 800 524 800 c 0
 536 800 544 792 542 780 c 0
 541 775 537 767 533 764 c 2
 225 500 l 1
 445 236 l 2
 449 233 449 226 448 221 c 0
 446 209 436 200 424 200 c 0
 419 200 412 202 410 206 c 2
 190 470 l 1
 106 398 l 1
 76 221 l 2
 74 209 64 200 52 200 c 0
 40 200 32 209 34 221 c 0
 65 404 l 2
 65 405 65 406 65 407 c 0
 65 408 66 409 66 410 c 2
 128 780 l 2
 130 791 141 800 152 800 c 0
EndSplineSet
EndChar

StartChar: L
Encoding: 76 76 43
Width: 576
VWidth: 200
Flags: W
HStem: 200 42<126 494.949> 780 20G<191.5 204>
LayerCount: 2
Back
Fore
SplineSet
197 800 m 0
 198 800 l 0
 210 800 218 792 216 780 c 0
 126 242 l 1
 478 242 l 2
 488.632011236 242 495.339034176 234.935021067 495.339034176 224.978115169 c 0
 495.339034176 210.348200256 482.904821418 200 470 200 c 2
 98 200 l 2
 86 200 79 209 81 221 c 2
 174 780 l 2
 176 791 186 800 197 800 c 0
EndSplineSet
EndChar

StartChar: M
Encoding: 77 77 44
Width: 576
VWidth: 200
Flags: W
HStem: 200 21G<46 58 418 430> 780 20G<146.5 154.5 521.5 530>
LayerCount: 2
Back
Fore
SplineSet
152 800 m 0
 157 800 164 797 166 794 c 2
 308 623 l 1
 508 794 l 2
 512 797 519 800 524 800 c 0
 536 800 544 792 542 780 c 2
 448 221 l 2
 446 209 436 200 424 200 c 0
 412 200 404 209 406 221 c 0
 491 728 l 1
 323 584 l 1
 309 500 l 2
 307 489 295 479 284 479 c 0
 273 479 265 489 267 500 c 2
 281 584 l 1
 161 728 l 1
 76 221 l 2
 74 209 64 200 52 200 c 0
 40 200 32 209 34 221 c 0
 128 780 l 2
 130 791 141 800 152 800 c 0
EndSplineSet
EndChar

StartChar: N
Encoding: 78 78 45
Width: 576
VWidth: 200
Flags: W
HStem: 200 21G<46 58 418 430> 780 20G<146.5 158 518 530>
LayerCount: 2
Back
Fore
SplineSet
152 800 m 0
 164 800 172 792 170 780 c 0
 155 695 l 1
 430 365 l 1
 500 780 l 2
 502 792 512 800 524 800 c 0
 536 800 544 792 542 780 c 0
 464 317 l 2
 464 316 464 315 464 314 c 0
 464 313 463 312 463 311 c 2
 448 221 l 2
 446 209 436 200 424 200 c 0
 412 200 404 209 406 221 c 0
 420 305 l 1
 145 635 l 1
 76 221 l 2
 74 209 64 200 52 200 c 0
 40 200 32 209 34 221 c 0
 111 683 l 2
 111 684 112 685 112 686 c 0
 112 687 112 688 112 689 c 2
 128 780 l 2
 130 791 141 800 152 800 c 0
EndSplineSet
EndChar

StartChar: O
Encoding: 79 79 46
Width: 576
VWidth: 400
Flags: W
HStem: 200 42<161 330> 758 42<247 416>
LayerCount: 2
Back
Fore
SplineSet
245 800 m 1
 431 800 l 2
 436 800 443 797 445 794 c 2
 522 701 l 2
 524 698 527 691 526 686 c 2
 464 314 l 2
 463 309 459 302 455 299 c 2
 347 206 l 2
 343 203 336 200 331 200 c 2
 145 200 l 2
 140 200 133 203 131 206 c 2
 55 297 l 2
 53 299 50 302 50 305 c 0
 51 306 l 0
 50 308 50 312 50 314 c 0
 50 315 50 316 50 317 c 2
 112 686 l 2
 113 691 116 698 120 701 c 2
 229 794 l 2
 233 797 240 800 245 800 c 1
247 758 m 1
 152 677 l 1
 93 323 l 1
 161 242 l 1
 330 242 l 1
 423 323 l 1
 482 677 l 1
 416 758 l 1
 247 758 l 1
EndSplineSet
EndChar

StartChar: P
Encoding: 80 80 47
Width: 576
VWidth: 200
Flags: W
HStem: 200 21G<54 66> 479 42<134 383> 758 42<174 423>
LayerCount: 2
Back
Fore
SplineSet
160 800 m 1
 439 800 l 2
 444 800 451 797 453 794 c 2
 530 701 l 2
 532 698 535 691 534 686 c 2
 518 593 l 2
 517 588 514 581 510 578 c 2
 401 485 l 2
 397 482 390 479 385 479 c 2
 127 479 l 1
 84 221 l 2
 82 209 72 200 60 200 c 0
 48 200 40 209 42 221 c 0
 88 497 l 2
 88 498 89 499 89 500 c 0
 89 501 89 503 89 504 c 2
 135 779 l 2
 137 791 148 800 160 800 c 1
174 758 m 1
 134 521 l 1
 383 521 l 1
 478 602 l 1
 490 677 l 1
 423 758 l 1
 174 758 l 1
EndSplineSet
EndChar

StartChar: Q
Encoding: 81 81 48
Width: 576
VWidth: 200
Flags: W
HStem: 200 42<161 329> 758 42<247 415>
LayerCount: 2
Back
Fore
SplineSet
245 800 m 0
 431 800 l 2
 436 800 443 797 445 794 c 2
 522 701 l 2
 524 698 527 691 526 686 c 2
 464 314 l 2
 463 309 460 302 456 299 c 2
 418 268 l 1
 445 236 l 2
 449 233 450 226 449 221 c 0
 447 209 436 200 424 200 c 0
 419 200 412 202 410 206 c 2
 383 238 l 1
 349 208 l 2
 347 206 343 201 340 200 c 0
 339 200 l 0
 337 199 333 200 331 200 c 0
 330 200 329 200 328 200 c 2
 145 200 l 2
 140 200 133 203 131 206 c 2
 54 299 l 2
 52 302 49 309 50 314 c 2
 112 686 l 2
 113 691 116 698 120 701 c 2
 229 794 l 2
 233 797 240 800 245 800 c 0
247 758 m 1
 152 677 l 1
 94 323 l 1
 161 242 l 1
 329 242 l 1
 359 268 l 1
 255 392 l 2
 253 395 251 402 252 407 c 0
 254 419 264 428 276 428 c 0
 281 428 288 425 290 422 c 2
 393 297 l 1
 424 323 l 1
 482 677 l 1
 415 758 l 1
 247 758 l 1
EndSplineSet
EndChar

StartChar: R
Encoding: 82 82 49
Width: 576
VWidth: 200
Flags: W
HStem: 200 21G<54 66 429.5 438> 479 42<134 190 250 383> 758 42<174 423>
LayerCount: 2
Back
Fore
SplineSet
160 800 m 2
 439 800 l 2
 444 800 451 797 453 794 c 2
 530 701 l 2
 532 698 535 691 534 686 c 2
 518 593 l 2
 517 588 514 581 510 578 c 2
 401 485 l 2
 397 482 390 479 385 479 c 2
 250 479 l 1
 453 236 l 2
 457 233 457 226 456 221 c 0
 454 209 444 200 432 200 c 0
 427 200 420 202 418 206 c 2
 190 479 l 1
 127 479 l 1
 84 221 l 2
 82 209 72 200 60 200 c 0
 48 200 40 209 42 221 c 0
 88 497 l 2
 88 498 89 499 89 500 c 0
 89 501 89 503 89 504 c 2
 135 779 l 2
 137 791 148 800 160 800 c 2
174 758 m 1
 134 521 l 1
 203 521 l 2
 204 521 205 521 206 521 c 0
 207 521 208 521 209 521 c 2
 383 521 l 1
 478 602 l 1
 490 677 l 1
 423 758 l 1
 174 758 l 1
EndSplineSet
EndChar

StartChar: S
Encoding: 83 83 50
Width: 576
VWidth: 200
Flags: W
HStem: 200 42<161 329> 479 42<208 368> 758 42<247 415>
CounterMasks: 1 e0
LayerCount: 2
Back
Fore
SplineSet
245 800 m 0
 431 800 l 2
 436 800 443 797 445 794 c 2
 522 701 l 2
 524 698 527 691 526 686 c 0
 524 674 513 665 501 665 c 0
 496 665 489 668 487 671 c 2
 415 758 l 1
 247 758 l 1
 152 677 l 1
 140 602 l 1
 208 521 l 1
 384 521 l 2
 389 521 396 518 398 515 c 2
 476 422 l 2
 478 419 481 412 480 407 c 2
 464 314 l 2
 463 309 460 302 456 299 c 2
 347 206 l 2
 343 203 336 200 331 200 c 2
 145 200 l 2
 140 200 133 203 131 206 c 2
 54 299 l 2
 52 302 49 309 50 314 c 0
 52 326 63 335 75 335 c 0
 80 335 87 332 89 329 c 2
 161 242 l 1
 329 242 l 1
 424 323 l 1
 436 398 l 1
 368 479 l 1
 192 479 l 2
 187 479 180 482 178 485 c 2
 100 578 l 2
 98 581 95 588 96 593 c 2
 112 686 l 2
 113 691 116 698 120 701 c 2
 229 794 l 2
 233 797 240 800 245 800 c 0
EndSplineSet
EndChar

StartChar: T
Encoding: 84 84 51
Width: 576
VWidth: 200
Flags: W
HStem: 200 21G<186 198> 758 42<81.0511 264 306 494.949>
LayerCount: 2
Back
Fore
SplineSet
292 800 m 0
 293 800 293 800 294 800 c 2
 478 800 l 2
 488.632011236 800 495.339034176 792.935021067 495.339034176 782.978115169 c 0
 495.339034176 768.348200256 482.904821418 758 470 758 c 2
 306 758 l 1
 216 221 l 2
 214 209 204 200 192 200 c 0
 180 200 172 209 174 221 c 0
 264 758 l 1
 98 758 l 2
 87.367988764 758 80.660965824 765.064978933 80.660965824 775.021884831 c 0
 80.660965824 789.651799744 93.0951785819 800 106 800 c 2
 288 800 l 2
 289 800 291 800 292 800 c 0
EndSplineSet
EndChar

StartChar: U
Encoding: 85 85 52
Width: 576
VWidth: 200
Flags: W
HStem: 200 42<153 321> 780 20G<138.5 150 510 522>
LayerCount: 2
Back
Fore
SplineSet
144 800 m 0
 156 800 164 792 162 780 c 0
 86 323 l 1
 153 242 l 1
 321 242 l 1
 416 323 l 1
 492 780 l 2
 494 792 504 800 516 800 c 0
 528 800 536 792 534 780 c 0
 456 314 l 2
 455 309 452 302 448 299 c 2
 339 206 l 2
 335 203 328 200 323 200 c 2
 137 200 l 2
 132 200 125 203 123 206 c 2
 46 299 l 2
 44 302 41 309 42 314 c 2
 120 780 l 2
 122 791 133 800 144 800 c 0
EndSplineSet
EndChar

StartChar: V
Encoding: 86 86 53
Width: 576
VWidth: 200
Flags: W
HStem: 200 21G<219.5 224.5> 780 20G<130.5 142 502 514>
LayerCount: 2
Back
Fore
SplineSet
136 800 m 0
 148 800 156 792 154 780 c 0
 93 416 l 1
 231 251 l 1
 423 416 l 1
 484 780 l 2
 486 792 496 800 508 800 c 0
 520 800 528 792 526 780 c 0
 464 407 l 2
 463 402 459 395 455 392 c 2
 238 206 l 2
 234 203 227 200 222 200 c 0
 217 200 210 203 208 206 c 2
 53 392 l 2
 51 395 49 402 50 407 c 2
 112 780 l 2
 114 791 125 800 136 800 c 0
EndSplineSet
EndChar

StartChar: W
Encoding: 87 87 54
Width: 576
VWidth: 200
Flags: W
HStem: 200 21G<46 54.5 421.5 430> 780 20G<146.5 158 518 530>
LayerCount: 2
Back
Fore
SplineSet
152 800 m 0
 164 800 172 792 170 780 c 0
 85 272 l 1
 253 416 l 1
 267 500 l 2
 269 512 279 521 291 521 c 0
 303 521 311 512 309 500 c 0
 295 416 l 1
 415 272 l 1
 500 780 l 2
 502 792 512 800 524 800 c 0
 536 800 544 792 542 780 c 0
 448 221 l 2
 446 209 436 200 424 200 c 0
 419 200 412 203 410 206 c 2
 267 377 l 1
 68 206 l 2
 64 203 57 200 52 200 c 0
 40 200 32 209 34 221 c 2
 128 780 l 2
 130 791 141 800 152 800 c 0
EndSplineSet
EndChar

StartChar: X
Encoding: 88 88 55
Width: 576
VWidth: 200
Flags: W
HStem: 200 21G<46 58 418 430> 780 20G<146.5 158 518 530>
LayerCount: 2
Back
Fore
SplineSet
152 800 m 0
 164 800 172 792 170 780 c 0
 155 695 l 1
 293 530 l 1
 485 695 l 1
 500 780 l 2
 502 792 512 800 524 800 c 0
 536 800 544 792 542 780 c 0
 526 686 l 2
 525 681 521 674 517 671 c 2
 318 500 l 1
 460 329 l 2
 462 326 465 319 464 314 c 2
 448 221 l 2
 446 209 436 200 424 200 c 0
 412 200 404 209 406 221 c 0
 420 305 l 1
 283 470 l 1
 90 305 l 1
 76 221 l 2
 74 209 64 200 52 200 c 0
 40 200 32 209 34 221 c 0
 50 314 l 2
 51 319 54 326 58 329 c 2
 258 500 l 1
 115 671 l 2
 113 674 111 681 112 686 c 2
 128 780 l 2
 130 791 141 800 152 800 c 0
EndSplineSet
EndChar

StartChar: Y
Encoding: 89 89 56
Width: 576
VWidth: 200
Flags: W
HStem: 200 21G<193 205> 780 20G<107.5 119 479 491>
LayerCount: 2
Back
Fore
SplineSet
113 800 m 0
 125 800 133 792 131 780 c 0
 117 695 l 1
 254 530 l 1
 447 695 l 1
 461 780 l 2
 463 792 473 800 485 800 c 0
 497 800 505 792 503 780 c 0
 487 686 l 2
 486 681 483 674 479 671 c 2
 269 491 l 1
 224 221 l 2
 222 209 211 200 199 200 c 0
 187 200 180 209 182 221 c 0
 227 491 l 1
 77 671 l 2
 75 674 72 681 73 686 c 2
 89 780 l 2
 91 791 102 800 113 800 c 0
EndSplineSet
EndChar

StartChar: Z
Encoding: 90 90 57
Width: 576
VWidth: 200
Flags: W
HStem: 200 42<80 448.961> 758 42<127.039 496>
LayerCount: 2
Back
Fore
SplineSet
152 800 m 2
 524 800 l 2
 536 800 543 791 541 779 c 2
 526 686 l 2
 525 681 521 674 517 671 c 2
 91 305 l 1
 80 242 l 1
 431 242 l 2
 441.761663039 242 449.306287429 234.761663039 449.306287429 224.612574859 c 0
 449.306287429 210.20617194 436.690618 200 424 200 c 2
 52 200 l 2
 40 200 33 209 35 221 c 2
 50 314 l 2
 51 319 55 326 59 329 c 2
 485 695 l 1
 496 758 l 1
 145 758 l 2
 134.238336961 758 126.693712571 765.238336961 126.693712571 775.387425141 c 0
 126.693712571 789.79382806 139.309382 800 152 800 c 2
EndSplineSet
EndChar

StartChar: bracketleft
Encoding: 91 91 58
Width: 576
VWidth: 200
Flags: W
HStem: 200 42<173 355.961> 758 42<259 447.939>
VStem: 128 320.339
LayerCount: 2
Back
Fore
SplineSet
245 800 m 0
 431 800 l 2
 441.632011236 800 448.339034176 792.935021067 448.339034176 782.978115169 c 0
 448.339034176 768.453687219 436.822289383 758 424 758 c 2
 259 758 l 1
 173 242 l 1
 338 242 l 2
 348.761663039 242 356.306287429 234.761663039 356.306287429 224.612574859 c 0
 356.306287429 210.20617194 343.690618 200 331 200 c 2
 145 200 l 2
 133 200 126 209 128 221 c 2
 220 779 l 2
 222 791 233 800 245 800 c 0
EndSplineSet
EndChar

StartChar: bracketright
Encoding: 93 93 59
Width: 576
VWidth: 200
Flags: W
HStem: 200 42<128.061 317> 758 42<220.039 403>
VStem: 127.661 320.339
LayerCount: 2
Back
Fore
SplineSet
245 800 m 2
 431 800 l 2
 443 800 450 791 448 779 c 2
 356 221 l 2
 354 209 343 200 331 200 c 2
 145 200 l 2
 134.367988764 200 127.660965824 207.064978933 127.660965824 217.021884831 c 0
 127.660965824 231.546312781 139.177710617 242 152 242 c 2
 317 242 l 1
 403 758 l 1
 238 758 l 2
 227.238336961 758 219.693712571 765.238336961 219.693712571 775.387425141 c 0
 219.693712571 789.79382806 232.309382 800 245 800 c 2
EndSplineSet
EndChar

StartChar: underscore
Encoding: 95 95 60
Width: 576
VWidth: 200
Flags: W
HStem: 107 42<-58.9391 634.961>
LayerCount: 2
Back
Fore
SplineSet
-35 149 m 2
 617 149 l 2
 627.761663039 149 635.306287429 141.761663039 635.306287429 131.612574859 c 0
 635.306287429 117.20617194 622.690618 107 610 107 c 2
 -42 107 l 2
 -52.632011236 107 -59.339034176 114.064978933 -59.339034176 124.021884831 c 0
 -59.339034176 138.546312781 -47.8222893828 149 -35 149 c 2
EndSplineSet
EndChar

StartChar: a
Encoding: 97 97 61
Width: 576
VWidth: 200
Flags: W
HStem: 200 42<200 275> 479 42<239 314> 572 42<135.039 330>
LayerCount: 2
Back
Fore
SplineSet
160 614 m 2
 346 614 l 2
 351 614 358 611 360 608 c 2
 437 515 l 2
 439 512 442 505 441 500 c 2
 426 410 l 2
 426 409 425 408 425 407 c 0
 425 406 425 405 425 404 c 2
 411 323 l 1
 484 236 l 2
 488 233 488 226 487 221 c 0
 485 209 475 200 463 200 c 0
 458 200 451 202 449 206 c 2
 384 284 l 1
 293 206 l 2
 289 203 282 200 277 200 c 2
 184 200 l 2
 179 200 172 203 170 206 c 2
 92 299 l 2
 90 302 88 309 89 314 c 2
 104 407 l 2
 105 412 109 419 113 422 c 2
 221 515 l 2
 225 518 232 521 237 521 c 2
 330 521 l 2
 335 521 342 518 344 515 c 2
 392 458 l 1
 397 491 l 1
 330 572 l 1
 153 572 l 2
 142.238336961 572 134.693712571 579.238336961 134.693712571 589.387425141 c 0
 134.693712571 603.79382806 147.309382 614 160 614 c 2
239 479 m 1
 145 398 l 1
 132 323 l 1
 200 242 l 1
 275 242 l 1
 369 323 l 1
 382 398 l 1
 314 479 l 1
 239 479 l 1
EndSplineSet
EndChar

StartChar: b
Encoding: 98 98 62
Width: 576
VWidth: 200
Flags: W
HStem: 200 42<150 306> 572 42<212 361> 780 20G<215.5 227>
LayerCount: 2
Back
Fore
SplineSet
205 572 m 1
 150 242 l 1
 306 242 l 1
 400 323 l 1
 428 491 l 1
 361 572 l 1
 205 572 l 1
221 800 m 0
 233 800 242 792 240 780 c 2
 212 614 l 1
 376 614 l 2
 381 614 387 611 389 608 c 2
 468 515 l 2
 470 512 472 505 471 500 c 2
 440 314 l 2
 439 309 436 302 432 299 c 2
 322 206 l 2
 318 203 312 200 307 200 c 2
 121 200 l 2
 109 200 103 209 105 221 c 2
 166 590 l 2
 166 591 167 592 167 593 c 0
 167 594 167 596 167 597 c 2
 198 780 l 2
 200 791 210 800 221 800 c 0
EndSplineSet
EndChar

StartChar: c
Encoding: 99 99 63
Width: 576
VWidth: 200
Flags: W
HStem: 200 42<223 299> 572 42<277 353>
LayerCount: 2
Back
Fore
SplineSet
275 614 m 0
 368 614 l 2
 373 614 380 611 382 608 c 2
 460 515 l 2
 462 512 465 505 464 500 c 0
 462 488 452 479 440 479 c 0
 435 479 428 482 426 485 c 2
 353 572 l 1
 277 572 l 1
 183 491 l 1
 155 323 l 1
 223 242 l 1
 299 242 l 1
 400 329 l 2
 404 332 411 335 416 335 c 0
 426.761663039 335 434.306287429 327.761663039 434.306287429 317.612574859 c 0
 434.306287429 310.019341231 428.968779573 302.72658468 424 299 c 2
 316 206 l 2
 312 203 305 200 300 200 c 2
 207 200 l 2
 202 200 196 203 194 206 c 2
 116 299 l 2
 114 302 111 309 112 314 c 2
 142 500 l 2
 143 505 148 512 152 515 c 2
 260 608 l 2
 264 611 270 614 275 614 c 0
EndSplineSet
EndChar

StartChar: d
Encoding: 100 100 64
Width: 576
VWidth: 200
Flags: W
HStem: 200 42<200 356> 572 42<255 411> 780 20G<464.5 476>
LayerCount: 2
Back
Fore
SplineSet
470 800 m 0
 482 800 489 792 487 780 c 0
 457 596 l 2
 457 595 457 594 457 593 c 0
 457 592 456 591 456 590 c 2
 394 221 l 2
 392 209 382 200 370 200 c 2
 184 200 l 2
 179 200 173 203 171 206 c 2
 92 299 l 2
 90 302 88 309 89 314 c 2
 120 500 l 2
 121 505 124 512 128 515 c 2
 238 608 l 2
 242 611 248 614 253 614 c 2
 418 614 l 1
 445 780 l 2
 447 791 459 800 470 800 c 0
255 572 m 1
 160 491 l 1
 132 323 l 1
 200 242 l 1
 356 242 l 1
 411 572 l 1
 255 572 l 1
EndSplineSet
EndChar

StartChar: e
Encoding: 101 101 65
Width: 576
VWidth: 200
Flags: W
HStem: 200 42<223 417.939> 386 42<172 410> 572 42<277 353>
CounterMasks: 1 e0
LayerCount: 2
Back
Fore
SplineSet
275 614 m 1
 368 614 l 2
 373 614 380 611 382 608 c 2
 460 515 l 2
 462 512 465 505 464 500 c 2
 449 407 l 2
 447 395 436 386 424 386 c 2
 166 386 l 1
 155 323 l 1
 223 242 l 1
 401 242 l 2
 411.632011236 242 418.339034176 234.935021067 418.339034176 224.978115169 c 0
 418.339034176 210.453687219 406.822289383 200 394 200 c 2
 207 200 l 2
 202 200 196 203 194 206 c 2
 116 299 l 2
 114 302 111 309 112 314 c 2
 126 404 l 2
 126 405 127 406 127 407 c 0
 127 408 128 409 128 410 c 2
 142 500 l 2
 143 505 148 512 152 515 c 2
 260 608 l 2
 264 611 270 614 275 614 c 1
277 572 m 1
 183 491 l 1
 172 428 l 1
 410 428 l 1
 421 491 l 1
 353 572 l 1
 277 572 l 1
EndSplineSet
EndChar

StartChar: f
Encoding: 102 102 66
Width: 576
VWidth: 200
Flags: W
HStem: 200 21G<209 221> 479 42<151.061 240 289 378.961> 758 42<329 424.939>
VStem: 150.661 274.678
LayerCount: 2
Back
Fore
SplineSet
315 800 m 0
 408 800 l 2
 418.632011236 800 425.339034176 792.935021067 425.339034176 782.978115169 c 0
 425.339034176 768.453687219 413.822289383 758 401 758 c 2
 329 758 l 1
 289 521 l 1
 361 521 l 2
 371.761663039 521 379.306287429 513.761663039 379.306287429 503.612574859 c 0
 379.306287429 489.20617194 366.690618 479 354 479 c 2
 282 479 l 1
 239 221 l 2
 237 209 227 200 215 200 c 0
 203 200 195 209 197 221 c 0
 240 479 l 1
 168 479 l 2
 157.367988764 479 150.660965824 486.064978933 150.660965824 496.021884831 c 0
 150.660965824 510.546312781 162.177710617 521 175 521 c 2
 247 521 l 1
 290 779 l 2
 292 791 303 800 315 800 c 0
EndSplineSet
EndChar

StartChar: g
Encoding: 103 103 67
Width: 576
VWidth: 200
Flags: W
HStem: 107 42<215 291> 293 42<246 322> 572 42<285 361>
LayerCount: 2
Back
Fore
SplineSet
284 614 m 2
 377 614 l 2
 382 614 388 611 390 608 c 2
 468 515 l 2
 470 512 473 505 472 500 c 2
 457 410 l 2
 457 409 457 408 457 407 c 0
 457 406 456 405 456 404 c 2
 426 221 l 2
 425 216 420 209 416 206 c 2
 308 113 l 2
 304 110 298 107 293 107 c 2
 200 107 l 2
 195 107 188 110 186 113 c 2
 108 206 l 2
 104 209 103 216 104 221 c 0
 106 233 116 242 128 242 c 0
 133 242 140 240 142 236 c 2
 215 149 l 1
 291 149 l 1
 385 230 l 1
 406 356 l 1
 339 299 l 2
 335 296 329 293 324 293 c 2
 231 293 l 2
 226 293 219 296 217 299 c 2
 139 392 l 2
 137 395 134 402 135 407 c 2
 150 500 l 2
 151 505 156 512 160 515 c 2
 268 608 l 2
 272 611 279 614 284 614 c 2
285 572 m 1
 191 491 l 1
 178 416 l 1
 246 335 l 1
 322 335 l 1
 416 416 l 1
 429 491 l 1
 361 572 l 1
 285 572 l 1
EndSplineSet
EndChar

StartChar: h
Encoding: 104 104 68
Width: 576
VWidth: 200
Flags: W
HStem: 200 21G<115 127 395 407> 572 42<212 361> 780 20G<215.5 227>
LayerCount: 2
Back
Fore
SplineSet
221 800 m 0
 233 800 242 792 240 780 c 2
 212 614 l 1
 376 614 l 2
 381 614 387 611 389 608 c 2
 468 515 l 2
 470 512 472 505 471 500 c 2
 425 221 l 2
 423 209 413 200 401 200 c 0
 389 200 381 209 383 221 c 2
 428 491 l 1
 361 572 l 1
 205 572 l 1
 147 221 l 2
 145 209 133 200 121 200 c 0
 109 200 103 209 105 221 c 2
 166 590 l 2
 166 591 167 592 167 593 c 0
 167 594 167 596 167 597 c 2
 198 780 l 2
 200 791 210 800 221 800 c 0
EndSplineSet
EndChar

StartChar: i
Encoding: 105 105 69
Width: 576
VWidth: 200
Flags: W
HStem: 200 21G<240 252>
VStem: 228 120
LayerCount: 2
Back
Fore
SplineSet
330 707 m 0
 342 707 350 698 348 686 c 0
 332 593 l 2
 330 581 320 572 308 572 c 0
 296 572 288 581 290 593 c 0
 306 686 l 2
 308 697 319 707 330 707 c 0
299 521 m 0
 311 521 319 512 317 500 c 0
 270 221 l 2
 268 209 258 200 246 200 c 0
 234 200 226 209 228 221 c 0
 275 500 l 2
 277 511 288 521 299 521 c 0
EndSplineSet
EndChar

StartChar: j
Encoding: 106 106 70
Width: 576
VWidth: 200
Flags: W
HStem: 107 42<199 275>
LayerCount: 2
Back
Fore
SplineSet
469 707 m 0
 470 707 l 0
 482 707 490 698 488 686 c 0
 472 593 l 2
 470 581 460 572 448 572 c 0
 436 572 428 581 430 593 c 0
 446 686 l 2
 448 697 458 707 469 707 c 0
438 521 m 0
 439 521 l 0
 451 521 459 512 457 500 c 0
 410 221 l 2
 409 216 405 209 401 206 c 2
 292 113 l 2
 288 110 282 107 277 107 c 2
 184 107 l 2
 179 107 172 110 170 113 c 2
 93 206 l 2
 89 209 87 216 88 221 c 0
 90 233 101 242 113 242 c 0
 118 242 125 240 127 236 c 2
 199 149 l 1
 275 149 l 1
 370 230 l 1
 415 500 l 2
 417 511 427 521 438 521 c 0
EndSplineSet
EndChar

StartChar: k
Encoding: 107 107 71
Width: 576
VWidth: 200
Flags: W
HStem: 200 21G<107 119 390.5 399> 594 20G<459.5 468> 780 20G<207.5 219>
LayerCount: 2
Back
Fore
SplineSet
213 800 m 0
 225 800 233 792 231 780 c 0
 162 365 l 1
 226 420 l 2
 227 422 230 423 232 424 c 2
 446 608 l 2
 450 611 457 614 462 614 c 0
 474 614 482 606 480 594 c 0
 479 589 474 581 470 578 c 2
 271 407 l 1
 413 236 l 2
 417 233 419 226 418 221 c 0
 416 209 405 200 393 200 c 0
 388 200 381 202 379 206 c 2
 236 377 l 1
 152 305 l 1
 138 221 l 2
 136 209 125 200 113 200 c 0
 101 200 94 209 96 221 c 0
 111 311 l 2
 111 312 111 313 111 314 c 0
 111 315 112 316 112 317 c 2
 189 780 l 2
 191 791 202 800 213 800 c 0
EndSplineSet
EndChar

StartChar: l
Encoding: 108 108 72
Width: 576
VWidth: 200
Flags: W
HStem: 200 42<266 356.007> 780 20G<331.5 343>
VStem: 220 135
LayerCount: 2
Back
Fore
SplineSet
337 800 m 0
 349 800 357 792 355 780 c 0
 266 242 l 1
 338 242 l 2
 348.761663039 242 356.306287429 234.761663039 356.306287429 224.612574859 c 0
 356.306287429 210.301953177 344.615748077 200 332 200 c 2
 330 200 l 2
 238 200 l 2
 226 200 218 209 220 221 c 2
 313 780 l 2
 315 791 326 800 337 800 c 0
EndSplineSet
EndChar

StartChar: m
Encoding: 109 109 73
Width: 576
VWidth: 200
Flags: W
HStem: 200 21G<69 81 255 267 441 453> 594 20G<138.5 150 234.5 239.5 420.5 425.5>
LayerCount: 2
Back
Fore
SplineSet
144 614 m 0
 156 614 164 606 162 594 c 0
 155 551 l 1
 221 608 l 2
 225 611 232 614 237 614 c 0
 242 614 249 611 251 608 c 2
 316 530 l 1
 407 608 l 2
 411 611 418 614 423 614 c 0
 428 614 435 611 437 608 c 2
 515 515 l 2
 517 512 519 505 518 500 c 2
 472 221 l 2
 470 209 459 200 447 200 c 0
 435 200 428 209 430 221 c 0
 475 491 l 1
 415 563 l 1
 331 491 l 1
 286 221 l 2
 284 209 273 200 261 200 c 0
 249 200 242 209 244 221 c 0
 289 491 l 1
 229 563 l 1
 145 491 l 1
 100 221 l 2
 98 209 87 200 75 200 c 0
 63 200 56 209 58 221 c 0
 104 497 l 2
 104 498 104 499 104 500 c 0
 104 501 105 502 105 503 c 2
 120 594 l 2
 122 605 133 614 144 614 c 0
EndSplineSet
EndChar

StartChar: n
Encoding: 110 110 74
Width: 576
VWidth: 200
Flags: W
HStem: 200 21G<115 127 395 407> 572 42<285 361>
LayerCount: 2
Back
Fore
SplineSet
283 614 m 0
 377 614 l 2
 382 614 388 611 390 608 c 2
 468 515 l 2
 470 512 473 505 472 500 c 2
 426 221 l 2
 424 209 413 200 401 200 c 0
 389 200 382 209 384 221 c 0
 429 491 l 1
 361 572 l 1
 285 572 l 1
 191 491 l 1
 146 221 l 2
 144 209 133 200 121 200 c 0
 109 200 102 209 104 221 c 0
 150 500 l 1
 166 593 l 2
 168 604 179 614 190 614 c 0
 201 614 210 604 208 593 c 2
 201 551 l 1
 268 608 l 2
 272 611 278 614 283 614 c 0
EndSplineSet
EndChar

StartChar: o
Encoding: 111 111 75
Width: 576
VWidth: 200
Flags: W
HStem: 200 42<223 299> 572 42<278 354>
LayerCount: 2
Back
Fore
SplineSet
277 614 m 1
 370 614 l 2
 375 614 381 611 383 608 c 2
 460 515 l 2
 462 512 466 505 465 500 c 2
 434 314 l 2
 433 309 428 302 424 299 c 2
 316 206 l 2
 312 203 306 200 301 200 c 2
 208 200 l 2
 203 200 196 203 194 206 c 2
 118 297 l 2
 116 299 111 302 111 305 c 0
 111 306 l 0
 110 308 113 312 113 314 c 0
 113 315 113 316 113 317 c 2
 144 500 l 2
 145 505 148 512 152 515 c 2
 261 608 l 2
 265 611 272 614 277 614 c 1
278 572 m 1
 184 491 l 1
 156 323 l 1
 223 242 l 1
 299 242 l 1
 393 323 l 1
 421 491 l 1
 354 572 l 1
 278 572 l 1
EndSplineSet
EndChar

StartChar: p
Encoding: 112 112 76
Width: 576
VWidth: 200
Flags: W
HStem: 107 21G<108 120> 293 42<174 330> 572 42<213 369>
LayerCount: 2
Back
Fore
SplineSet
198 614 m 2
 384 614 l 2
 389 614 395 611 397 608 c 2
 476 515 l 2
 478 512 480 505 479 500 c 2
 464 407 l 2
 463 402 459 395 455 392 c 2
 346 299 l 2
 342 296 336 293 331 293 c 2
 167 293 l 1
 139 128 l 2
 137 116 126 107 114 107 c 0
 102 107 95 116 97 128 c 0
 128 311 l 2
 128 312 128 313 128 314 c 0
 128 315 129 316 129 317 c 2
 175 593 l 2
 177 605 186 614 198 614 c 2
213 572 m 1
 174 335 l 1
 330 335 l 1
 423 416 l 1
 436 491 l 1
 369 572 l 1
 213 572 l 1
EndSplineSet
EndChar

StartChar: q
Encoding: 113 113 77
Width: 576
VWidth: 200
Flags: W
HStem: 107 42<382 471.961> 293 42<215 364> 572 42<255 411>
LayerCount: 2
Back
Fore
SplineSet
253 614 m 2
 439 614 l 2
 451 614 458 605 456 593 c 2
 410 317 l 2
 410 316 410 315 410 314 c 0
 410 313 409 312 409 311 c 2
 382 149 l 1
 454 149 l 2
 464.761663039 149 472.306287429 141.761663039 472.306287429 131.612574859 c 0
 472.306287429 117.20617194 459.690618 107 447 107 c 2
 354 107 l 2
 342 107 335 116 337 128 c 2
 364 293 l 1
 199 293 l 2
 194 293 187 296 185 299 c 2
 108 392 l 2
 106 395 103 402 104 407 c 2
 120 500 l 2
 121 505 124 512 128 515 c 2
 237 608 l 2
 241 611 248 614 253 614 c 2
255 572 m 1
 160 491 l 1
 148 416 l 1
 215 335 l 1
 371 335 l 1
 411 572 l 1
 255 572 l 1
EndSplineSet
EndChar

StartChar: r
Encoding: 114 114 78
Width: 576
VWidth: 200
Flags: W
HStem: 200 21G<169 181> 572 42<339 448.961>
VStem: 127 322.306
LayerCount: 2
Back
Fore
SplineSet
151 614 m 0
 156 614 163 612 165 608 c 2
 230 530 l 1
 322 608 l 2
 326 611 332 614 337 614 c 2
 430 614 l 2
 431 614 l 0
 441.761663039 614 449.306287429 606.761663039 449.306287429 596.612574859 c 0
 449.306287429 582.20617194 436.690618 572 424 572 c 2
 423 572 l 2
 339 572 l 1
 245 491 l 1
 200 221 l 2
 198 209 187 200 175 200 c 0
 163 200 156 209 158 221 c 0
 203 491 l 1
 131 578 l 2
 127 581 126 588 127 593 c 0
 129 605 139 614 151 614 c 0
EndSplineSet
EndChar

StartChar: s
Encoding: 115 115 79
Width: 576
VWidth: 200
Flags: W
HStem: 200 42<223 299> 386 42<254 323> 572 42<278 354>
CounterMasks: 1 e0
LayerCount: 2
Back
Fore
SplineSet
276 614 m 0
 370 614 l 2
 375 614 381 611 383 608 c 2
 460 515 l 2
 462 512 465 505 464 500 c 0
 462 488 452 479 440 479 c 0
 435 479 428 482 426 485 c 2
 354 572 l 1
 278 572 l 1
 194 500 l 1
 254 428 l 1
 339 428 l 2
 344 428 350 425 352 422 c 2
 429 329 l 2
 431 326 435 319 434 314 c 0
 433 309 428 302 424 299 c 2
 316 206 l 2
 312 203 306 200 301 200 c 2
 207 200 l 2
 202 200 196 203 194 206 c 2
 116 299 l 2
 114 302 111 309 112 314 c 0
 114 326 124 335 136 335 c 0
 141 335 148 332 150 329 c 2
 223 242 l 1
 299 242 l 1
 383 314 l 1
 323 386 l 1
 238 386 l 2
 233 386 227 389 225 392 c 2
 147 485 l 2
 145 488 142 495 143 500 c 0
 144 505 148 512 152 515 c 2
 261 608 l 2
 265 611 271 614 276 614 c 0
EndSplineSet
EndChar

StartChar: t
Encoding: 116 116 80
Width: 576
VWidth: 200
Flags: W
HStem: 200 42<251 339.939> 572 42<173.993 264 312 402.007> 780 20G<316.5 328>
VStem: 173.694 228.613<572.13 613.87>
LayerCount: 2
Back
Fore
SplineSet
322 800 m 0
 334 800 342 792 340 780 c 0
 312 614 l 1
 384 614 l 2
 394.761663039 614 402.306287429 606.761663039 402.306287429 596.612574859 c 0
 402.306287429 582.301953177 390.615748077 572 378 572 c 2
 306 572 l 1
 251 242 l 1
 323 242 l 2
 333.632011236 242 340.339034176 234.935021067 340.339034176 224.978115169 c 0
 340.339034176 210.453687219 328.822289383 200 316 200 c 2
 223 200 l 2
 211 200 203 209 205 221 c 2
 264 572 l 1
 192 572 l 2
 181.238336961 572 173.693712571 579.238336961 173.693712571 589.387425141 c 0
 173.693712571 603.698046823 185.384251923 614 198 614 c 2
 270 614 l 1
 298 780 l 2
 300 791 311 800 322 800 c 0
EndSplineSet
EndChar

StartChar: u
Encoding: 117 117 81
Width: 576
VWidth: 200
Flags: W
HStem: 200 42<141 379> 594 20G<176.5 188 456 468>
LayerCount: 2
Back
Fore
SplineSet
182 614 m 0
 194 614 202 606 200 594 c 0
 141 242 l 1
 379 242 l 1
 438 594 l 2
 440 606 450 614 462 614 c 0
 474 614 482 606 480 594 c 0
 418 221 l 2
 416 209 405 200 393 200 c 2
 113 200 l 2
 101 200 94 209 96 221 c 2
 158 594 l 2
 160 605 171 614 182 614 c 0
EndSplineSet
EndChar

StartChar: v
Encoding: 118 118 82
Width: 576
VWidth: 200
Flags: W
HStem: 200 21G<235.5 240.5> 594 20G<115.5 127 487 499>
LayerCount: 2
Back
Fore
SplineSet
121 614 m 0
 133 614 141 606 139 594 c 0
 109 416 l 1
 246 251 l 1
 439 416 l 1
 469 594 l 2
 471 606 481 614 493 614 c 0
 505 614 513 606 511 594 c 0
 479 407 l 2
 478 402 475 395 471 392 c 2
 254 206 l 2
 250 203 243 200 238 200 c 0
 233 200 226 203 224 206 c 2
 69 392 l 2
 67 395 64 402 65 407 c 2
 97 594 l 2
 99 605 110 614 121 614 c 0
EndSplineSet
EndChar

StartChar: w
Encoding: 119 119 83
Width: 576
VWidth: 200
Flags: W
HStem: 200 21G<150.5 155.5 336.5 341.5> 594 20G<123.5 135 495 507>
LayerCount: 2
Back
Fore
SplineSet
129 614 m 0
 141 614 148 606 146 594 c 0
 101 323 l 1
 161 251 l 1
 245 323 l 1
 259 407 l 2
 261 418 273 428 284 428 c 0
 295 428 303 418 301 407 c 2
 287 323 l 1
 347 251 l 1
 431 323 l 1
 476 594 l 2
 478 606 489 614 501 614 c 0
 513 614 520 606 518 594 c 0
 472 314 l 2
 471 309 467 302 463 299 c 2
 355 206 l 2
 351 203 344 200 339 200 c 0
 334 200 327 203 325 206 c 2
 260 284 l 1
 169 206 l 2
 165 203 158 200 153 200 c 0
 148 200 141 203 139 206 c 2
 61 299 l 2
 59 302 57 309 58 314 c 2
 104 594 l 2
 106 605 118 614 129 614 c 0
EndSplineSet
EndChar

StartChar: x
Encoding: 120 120 84
Width: 576
VWidth: 200
Flags: W
HStem: 200 21G<61.684 69.5 436.5 445> 594 20G<130 138.5 505.5 514>
LayerCount: 2
Back
Fore
SplineSet
136 614 m 0
 141 614 148 612 150 608 c 2
 293 437 l 1
 492 608 l 2
 496 611 503 614 508 614 c 0
 520 614 528 606 526 594 c 0
 525 589 521 581 517 578 c 2
 318 407 l 1
 460 236 l 2
 464 233 465 226 464 221 c 0
 462 209 451 200 439 200 c 0
 434 200 427 202 425 206 c 2
 283 377 l 1
 83 206 l 2
 79 202 72 200 67 200 c 0
 56.367988764 200 49.660965824 207.064978933 49.660965824 217.021884831 c 0
 49.660965824 224.262309517 53.214893541 232.411170156 58 236 c 2
 258 407 l 1
 115 578 l 2
 111 581 111 589 112 594 c 0
 114 606 124 614 136 614 c 0
EndSplineSet
EndChar

StartChar: y
Encoding: 121 121 85
Width: 576
VWidth: 200
Flags: W
HStem: 107 21G<54.6192 62.5> 594 20G<138.5 150 510 522>
LayerCount: 2
Back
Fore
SplineSet
144 614 m 0
 156 614 164 606 162 594 c 0
 148 509 l 1
 285 344 l 1
 478 509 l 1
 492 594 l 2
 494 606 504 614 516 614 c 0
 528 614 536 606 534 594 c 0
 518 500 l 2
 517 495 514 488 510 485 c 2
 295 302 l 2
 294 300 292 298 290 297 c 2
 76 113 l 2
 72 110 65 107 60 107 c 0
 49.2383369607 107 41.6937125706 114.238336961 41.6937125706 124.387425141 c 0
 41.6937125706 131.903431946 47.1255291371 139.125529137 51 143 c 2
 250 314 l 1
 108 485 l 2
 106 488 103 495 104 500 c 2
 120 594 l 2
 122 605 133 614 144 614 c 0
EndSplineSet
EndChar

StartChar: z
Encoding: 122 122 86
Width: 576
VWidth: 200
Flags: W
HStem: 200 42<126 463.939> 572 42<112.061 450>
LayerCount: 2
Back
Fore
SplineSet
136 614 m 2
 508 614 l 2
 518.761663039 614 526.306287429 606.761663039 526.306287429 596.612574859 c 0
 526.306287429 589.286742886 521.826221047 581.619665785 517 578 c 2
 126 242 l 1
 447 242 l 2
 457.632011236 242 464.339034176 234.935021067 464.339034176 224.978115169 c 0
 464.339034176 210.453687219 452.822289383 200 440 200 c 2
 68 200 l 2
 57.2383369607 200 49.6937125706 207.238336961 49.6937125706 217.387425141 c 0
 49.6937125706 224.713257114 54.173778953 232.380334215 59 236 c 2
 450 572 l 1
 129 572 l 2
 118.367988764 572 111.660965824 579.064978933 111.660965824 589.021884831 c 0
 111.660965824 603.546312781 123.177710617 614 136 614 c 2
EndSplineSet
EndChar

StartChar: sterling
Encoding: 163 163 87
Width: 576
VWidth: 200
Flags: W
HStem: 200 42<114 190 300 494.939> 479 42<220.061 309 358 448.961> 665 42<463 572.961>
LayerCount: 2
Back
Fore
SplineSet
461 707 m 1
 554 707 l 2
 555 707 l 0
 565.761663039 707 573.306287429 699.761663039 573.306287429 689.612574859 c 0
 573.306287429 675.20617194 560.690618 665 548 665 c 2
 547 665 l 2
 463 665 l 1
 369 584 l 1
 358 521 l 1
 430 521 l 2
 431 521 l 0
 441.761663039 521 449.306287429 513.761663039 449.306287429 503.612574859 c 0
 449.306287429 489.20617194 436.690618 479 424 479 c 2
 423 479 l 2
 351 479 l 1
 324 314 l 2
 323 309 319 302 315 299 c 2
 279 268 l 1
 300 242 l 1
 477 242 l 2
 478 242 l 0
 488.632011236 242 495.339034176 234.935021067 495.339034176 224.978115169 c 0
 495.339034176 210.453687219 483.822289383 200 471 200 c 2
 470 200 l 2
 284 200 l 2
 279 200 273 203 271 206 c 2
 244 238 l 1
 207 206 l 2
 203 203 196 200 191 200 c 2
 98 200 l 2
 93 200 86 203 84 206 c 2
 6 299 l 2
 4 302 2 309 3 314 c 0
 4 319 7 326 11 329 c 2
 120 422 l 2
 124 425 131 428 136 428 c 0
 141 428 148 425 150 422 c 2
 254 297 l 1
 283 323 l 1
 309 479 l 1
 237 479 l 2
 226.367988764 479 219.660965824 486.064978933 219.660965824 496.021884831 c 0
 219.660965824 510.546312781 231.177710617 521 244 521 c 2
 316 521 l 1
 328 593 l 2
 329 598 334 605 338 608 c 2
 446 701 l 2
 450 704 456 707 461 707 c 1
127 377 m 1
 54 314 l 1
 114 242 l 1
 190 242 l 1
 219 268 l 1
 127 377 l 1
EndSplineSet
EndChar

StartChar: pi
Encoding: 960 960 88
Width: 576
VWidth: 200
Flags: W
HStem: 200 21G<139 151 325 337> 479 42<212 356> 594 20G<490.5 499>
LayerCount: 2
Back
Fore
SplineSet
493 614 m 0
 505 614 513 606 511 594 c 0
 510 589 506 581 502 578 c 2
 400 491 l 1
 355 221 l 2
 353 209 343 200 331 200 c 0
 319 200 311 209 313 221 c 0
 356 479 l 1
 212 479 l 1
 169 221 l 2
 167 209 157 200 145 200 c 0
 133 200 125 209 127 221 c 0
 165 449 l 1
 99 392 l 2
 95 389 88 386 83 386 c 0
 72.2383369607 386 64.6937125706 393.238336961 64.6937125706 403.387425141 c 0
 64.6937125706 410.713257114 69.173778953 418.380334215 74 422 c 2
 182 515 l 2
 183 516 185 516 186 517 c 0
 186 517 187 519 188 519 c 0
 189 520 191 520 192 520 c 0
 193 520 195 521 196 521 c 0
 197 521 197 521 198 521 c 2
 375 521 l 1
 477 608 l 2
 481 611 488 614 493 614 c 0
EndSplineSet
EndChar

StartChar: arrowleft
Encoding: 8592 8592 89
Width: 576
VWidth: 200
Flags: W
HStem: 479 42<109 541.961>
LayerCount: 2
Back
Fore
SplineSet
275 707 m 0
 276 707 l 0
 286.761663039 707 294.306287429 699.761663039 294.306287429 689.612574859 c 0
 294.306287429 682.019341231 288.968779573 674.72658468 284 671 c 2
 109 521 l 1
 524 521 l 2
 534.761663039 521 542.306287429 513.761663039 542.306287429 503.612574859 c 0
 542.306287429 489.20617194 529.690618 479 517 479 c 2
 102 479 l 1
 227 329 l 2
 229 326 233 319 232 314 c 0
 230 302 219 293 207 293 c 0
 202 293 195 296 193 299 c 2
 39 483 l 2
 35 486 33 494 34 500 c 0
 35 506 39 514 45 517 c 2
 260 701 l 2
 264 704 270 707 275 707 c 0
EndSplineSet
EndChar

StartChar: arrowup
Encoding: 8593 8593 90
Width: 576
VWidth: 200
Flags: W
HStem: 200 21G<232 244>
LayerCount: 2
Back
Fore
SplineSet
323 707 m 0
 329 707 336 704 338 699 c 2
 492 515 l 2
 494 512 496 505 495 500 c 0
 493 488 483 479 471 479 c 0
 466 479 459 482 457 485 c 2
 332 635 l 1
 263 221 l 2
 261 209 250 200 238 200 c 0
 226 200 219 209 221 221 c 0
 290 635 l 1
 115 485 l 2
 111 482 104 479 99 479 c 0
 88.2383369607 479 80.6937125706 486.238336961 80.6937125706 496.387425141 c 0
 80.6937125706 503.713257114 85.173778953 511.380334215 90 515 c 2
 304 699 l 2
 308 704 317 707 323 707 c 0
EndSplineSet
EndChar

StartChar: SF100000
Encoding: 9472 9472 91
Width: 576
VWidth: 200
Flags: W
HStem: 479 42<-58.9489 634.949>
LayerCount: 2
Back
Fore
SplineSet
-34 521 m 2
 618 521 l 2
 628.632011236 521 635.339034176 513.935021067 635.339034176 503.978115169 c 0
 635.339034176 489.348200256 622.904821418 479 610 479 c 2
 -42 479 l 2
 -52.632011236 479 -59.339034176 486.064978933 -59.339034176 496.021884831 c 0
 -59.339034176 510.651799744 -46.9048214181 521 -34 521 c 2
EndSplineSet
EndChar

StartChar: SF110000
Encoding: 9474 9474 92
Width: 576
VWidth: 200
Flags: W
HStem: 107 21G<224 236> 780 20G<340.5 352>
VStem: 213 150
LayerCount: 2
Back
Fore
SplineSet
346 800 m 0
 358 800 365 792 363 780 c 0
 255 128 l 2
 253 116 242 107 230 107 c 0
 218 107 211 116 213 128 c 0
 321 780 l 2
 323 791 335 800 346 800 c 0
EndSplineSet
EndChar

StartChar: uni25B3
Encoding: 9651 9651 93
Width: 576
VWidth: 200
Flags: W
HStem: 200 42<64 521>
LayerCount: 2
Back
Fore
SplineSet
338 521 m 0
 343 521 350 518 352 515 c 2
 585 236 l 2
 587 233 589 226 588 221 c 0
 586 209 576 200 564 200 c 2
 9 200 l 2
 8 200 7 200 6 200 c 0
 -2 200 -9 206 -11 213 c 0
 -12 213 l 0
 -13 215 -12 219 -12 221 c 0
 -11 227 -7 235 -1 238 c 2
 322 515 l 2
 326 518 333 521 338 521 c 0
330 470 m 1
 64 242 l 1
 521 242 l 1
 330 470 l 1
EndSplineSet
EndChar

StartChar: uni25FB
Encoding: 9723 9723 94
Width: 576
VWidth: 200
Flags: W
HStem: 200 42<33 457> 758 42<119 543>
LayerCount: 2
Back
Fore
SplineSet
106 800 m 0
 570 800 l 2
 582 800 590 791 588 779 c 2
 495 221 l 2
 493 209 482 200 470 200 c 2
 8 200 l 2
 7 200 7 200 6 200 c 0
 1 200 -7 203 -9 206 c 0
 -11 209 -14 216 -13 221 c 0
 -13 222 -12 223 -12 224 c 2
 80 779 l 2
 82 791 94 800 106 800 c 0
119 758 m 1
 33 242 l 1
 457 242 l 1
 543 758 l 1
 119 758 l 1
EndSplineSet
EndChar

StartChar: backslash
Encoding: 92 92 96
Width: 576
VWidth: 0
Flags: W
HStem: 200 21G<476.5 485>
LayerCount: 2
Back
Fore
SplineSet
97 707 m 0
 102 707 109 705 111 701 c 2
 499 236 l 2
 503 233 504 226 503 221 c 0
 501 209 491 200 479 200 c 0
 474 200 467 202 465 206 c 2
 77 671 l 2
 73 674 72 681 73 686 c 0
 75 698 85 707 97 707 c 0
EndSplineSet
EndChar

StartChar: asciicircum
Encoding: 94 94 97
Width: 576
VWidth: 0
Flags: W
HStem: 479 228
LayerCount: 2
Back
Fore
SplineSet
323 707 m 0
 328 707 335 704 337 701 c 2
 492 515 l 2
 494 512 496 505 495 500 c 0
 493 488 483 479 471 479 c 0
 466 479 459 482 457 485 c 2
 314 656 l 1
 115 485 l 2
 111 482 104 479 99 479 c 0
 88.2383369607 479 80.6937125706 486.238336961 80.6937125706 496.387425141 c 0
 80.6937125706 503.713257114 85.173778953 511.380334215 90 515 c 2
 307 701 l 2
 311 704 318 707 323 707 c 0
EndSplineSet
EndChar

StartChar: grave
Encoding: 96 96 98
Width: 576
VWidth: 0
Flags: W
HStem: 572 228
VStem: 235 42<789 799.59> 299 41<572.315 584>
LayerCount: 2
Back
Fore
SplineSet
261 800 m 0
 268 800 275 795 277 789 c 2
 339 603 l 2
 339 600 340 596 340 593 c 0
 338 581 328 572 316 572 c 0
 309 572 301 577 299 584 c 2
 237 770 l 2
 237 773 235 776 235 779 c 0
 237 791 248 800 260 800 c 0
 261 800 l 0
EndSplineSet
EndChar

StartChar: braceleft
Encoding: 123 123 99
Width: 576
VWidth: 0
Flags: W
HStem: 200 42<246 347.961> 758 42<332 440.961>
VStem: 135 306.306
LayerCount: 2
Back
Fore
SplineSet
330 800 m 0
 423 800 l 2
 433.761663039 800 441.306287429 792.761663039 441.306287429 782.612574859 c 0
 441.306287429 768.20617194 428.690618 758 416 758 c 2
 332 758 l 1
 248 686 l 1
 313 608 l 2
 315 605 318 598 317 593 c 0
 316 588 312 581 308 578 c 2
 217 500 l 1
 282 422 l 2
 284 419 287 412 286 407 c 0
 285 402 281 395 277 392 c 2
 186 314 l 1
 246 242 l 1
 330 242 l 2
 340.761663039 242 348.306287429 234.761663039 348.306287429 224.612574859 c 0
 348.306287429 210.20617194 335.690618 200 323 200 c 2
 230 200 l 2
 225 200 218 203 216 206 c 2
 139 299 l 2
 137 302 134 309 135 314 c 0
 136 319 140 326 144 329 c 2
 235 407 l 1
 170 485 l 2
 168 488 165 495 166 500 c 0
 167 505 171 512 175 515 c 2
 266 593 l 1
 201 671 l 2
 199 674 196 681 197 686 c 0
 198 691 202 698 206 701 c 2
 314 794 l 2
 318 797 325 800 330 800 c 0
EndSplineSet
EndChar

StartChar: bar
Encoding: 124 124 100
Width: 576
VWidth: 0
Flags: W
HStem: 107 21G<224 236> 780 20G<340.5 352>
VStem: 213 150
LayerCount: 2
Back
Fore
SplineSet
346 800 m 0
 358 800 365 791 363 779 c 0
 255 128 l 2
 253 116 242 107 230 107 c 0
 218 107 211 116 213 128 c 0
 321 779 l 2
 323 790 335 800 346 800 c 0
EndSplineSet
EndChar

StartChar: braceright
Encoding: 125 125 101
Width: 576
VWidth: 0
Flags: W
HStem: 200 42<135.039 244> 758 42<228.039 330>
VStem: 134.694 306.306
LayerCount: 2
Back
Fore
SplineSet
253 800 m 2
 346 800 l 2
 351 800 358 797 360 794 c 2
 437 701 l 2
 439 698 442 691 441 686 c 0
 440 681 436 674 432 671 c 2
 341 593 l 1
 406 515 l 2
 408 512 411 505 410 500 c 0
 409 495 405 488 401 485 c 2
 310 407 l 1
 375 329 l 2
 377 326 380 319 379 314 c 0
 378 309 374 302 370 299 c 2
 262 206 l 2
 258 203 251 200 246 200 c 2
 153 200 l 2
 142.238336961 200 134.693712571 207.238336961 134.693712571 217.387425141 c 0
 134.693712571 231.79382806 147.309382 242 160 242 c 2
 244 242 l 1
 328 314 l 1
 263 392 l 2
 261 395 258 402 259 407 c 0
 260 412 264 419 268 422 c 2
 359 500 l 1
 294 578 l 2
 292 581 289 588 290 593 c 0
 291 598 295 605 299 608 c 2
 390 686 l 1
 330 758 l 1
 246 758 l 2
 235.238336961 758 227.693712571 765.238336961 227.693712571 775.387425141 c 0
 227.693712571 789.79382806 240.309382 800 253 800 c 2
EndSplineSet
EndChar

StartChar: asciitilde
Encoding: 126 126 102
Width: 576
VWidth: 0
Flags: W
HStem: 386 228
LayerCount: 2
Back
Fore
SplineSet
214 614 m 0
 219 614 226 611 228 608 c 2
 371 437 l 1
 462 515 l 2
 466 518 473 521 478 521 c 0
 488.632011236 521 495.339034176 513.935021067 495.339034176 503.978115169 c 0
 495.339034176 496.421919097 490.953134275 488.714850706 486 485 c 2
 378 392 l 2
 374 389 367 386 362 386 c 0
 357 386 350 389 348 392 c 2
 206 563 l 1
 114 485 l 2
 110 482 103 479 98 479 c 0
 87.367988764 479 80.660965824 486.064978933 80.660965824 496.021884831 c 0
 80.660965824 503.578080903 85.0468657255 511.285149294 90 515 c 2
 198 608 l 2
 202 611 209 614 214 614 c 0
EndSplineSet
EndChar
